<svg width="1200" height="630" viewBox="0 0 1200 630" fill="none" xmlns="http://www.w3.org/2000/svg">
<g clip-path="url(#clip0_184_2)">
<path d="M1200 0H0V630H1200V0Z" fill="#FFF9F4"/>
<path d="M987.021 760.315C981.732 763.44 972.042 765.088 966.093 763.898C956.675 762.006 948.878 751.184 948.878 740.031C948.878 732.104 943 709.184 938.542 699.666C936.693 695.738 931.447 685.604 926.889 677.146C916.582 658.038 913.328 647.058 911.493 625.141C910.691 615.695 909.515 607.424 908.884 606.793C907.179 605.087 890.837 622.116 882.882 633.856C866.455 658.124 860.979 685.274 866.426 715.448C870.468 737.824 868.533 747.514 859.244 751.399C838.259 760.157 814.206 738.956 805.519 704.038C802.695 692.685 802.423 688.729 803.082 669.635C804.344 633.469 812.744 611.394 839.061 574.97C841.9 571.028 844.236 567.416 844.236 566.929C844.236 566.441 835.363 566.083 824.526 566.112C801.018 566.198 789.923 563.603 767.547 552.781C728.543 533.917 697.366 498.353 685.196 458.862C681.34 446.333 679.691 422.194 682.186 414.64C687.031 399.961 702.039 392.708 715.628 398.456C722.322 401.294 724.573 404.448 729.575 418.037C736.269 436.256 741.057 446.462 747.364 455.995C765.784 483.818 795.987 502.61 832.64 509.018C845.311 511.24 860.262 511.885 861.868 510.279C862.369 509.777 858.241 506.18 852.679 502.281C831.808 487.616 811.21 463.821 800.244 441.66C787.816 416.604 784.032 398.485 784.032 364.183C784.032 342.495 784.519 336.818 787.558 323.659C796.273 285.831 811.066 258.868 837.513 232.564C852.45 217.714 866.412 207.221 882.939 198.434C945.366 165.221 1028.25 164.476 1092.41 196.556C1129.08 214.89 1160.02 245.537 1178.1 281.402C1195.77 316.478 1202.14 360.599 1195.44 401.768C1193.67 412.676 1190.4 426.91 1188.16 433.404C1172.29 479.833 1136.87 514.565 1090.4 529.287C1083.52 531.465 1077.89 533.96 1077.89 534.82C1077.89 537.773 1088.6 546.846 1100.48 553.985C1123.24 567.646 1149.09 574.583 1178.23 574.827C1195.83 574.985 1211.9 572.806 1226.97 568.233C1232.1 566.685 1242.76 565.051 1250.67 564.621C1266.43 563.761 1270.86 565.008 1279.06 572.62C1284.53 577.708 1286.65 582.181 1287.69 590.81C1289.12 602.794 1282.34 612.899 1265.67 623.65C1256.41 629.628 1247.15 633.67 1233.42 637.741C1214.94 643.217 1210.34 643.733 1178.95 643.733C1148.7 643.733 1146.82 643.575 1133.07 639.705C1106.73 632.28 1083.56 619.536 1064.46 601.948C1049.58 588.258 1048.5 589.95 1058.75 611.022C1073.9 642.156 1096.44 666.41 1127.6 685.131C1157.63 703.163 1165.9 716.05 1155.22 728.206C1149.03 735.272 1140.16 738.254 1125.29 738.283C1106.94 738.311 1089.46 731.875 1068.33 717.311C1056.21 708.969 1035.08 687.582 1026.61 675.082C1016.18 659.701 1006.17 638.157 999.607 616.899C998.446 613.157 996.841 610.09 996.038 610.09C984.871 610.09 980.557 641.138 987.308 672.703C989.028 680.716 991.078 688.987 991.867 691.051C996.64 703.593 1000.73 724.579 1000.12 733.366C999.292 745.263 993.974 756.215 987.021 760.315ZM893.36 393.697C900.642 396.994 903.982 397.152 910.361 394.486C918.603 391.031 924.509 382.903 924.509 375.048C924.509 359.467 907.078 348.945 893.002 356.012C877.406 363.853 877.621 386.544 893.36 393.697ZM1060.56 409.006C1064.1 411.386 1067.47 412.275 1073.03 412.275C1079.45 412.275 1081.43 411.601 1085.54 407.974C1091.85 402.441 1094.2 396.607 1093.31 388.695C1091.86 375.88 1079.31 367.107 1067.47 370.647C1064.13 371.651 1059.35 374.661 1056.76 377.413C1052.6 381.828 1052.09 383.276 1052.1 390.515C1052.13 400.32 1054.12 404.663 1060.56 409.006ZM959.299 461.757C969.734 466.287 987.064 461.786 992.784 453.042C996.009 448.111 993.415 445 988.627 448.082C972.271 458.561 957.478 457.442 957.478 445.717C957.478 440.198 961.176 436.901 970.279 434.292C980.213 431.44 982.477 429.82 980.256 427.139C979.367 426.064 977.188 425.176 975.439 425.176C970.121 425.176 962.553 419.155 962.022 414.511C960.216 398.901 983.094 395.661 994.017 409.967C1001.57 419.872 1007.09 414.038 1000.11 403.531C995.149 396.062 985.803 391.848 975.984 392.665C971.583 393.024 965.907 394.4 963.384 395.704C953.264 400.936 950.053 414.64 956.804 423.785L960.417 428.702L955.228 433.06C951.013 436.6 949.91 438.621 949.379 443.839C948.562 451.752 952.461 458.776 959.299 461.757Z" fill="#E88783"/>
<path d="M1060.56 409.006C1064.1 411.386 1067.47 412.275 1073.03 412.275C1079.45 412.275 1081.43 411.601 1085.54 407.974C1091.85 402.441 1094.2 396.607 1093.31 388.694C1091.86 375.879 1079.31 367.107 1067.47 370.647C1064.13 371.651 1059.35 374.661 1056.76 377.413C1052.6 381.828 1052.09 383.276 1052.1 390.515C1052.13 400.32 1054.12 404.663 1060.56 409.006Z" fill="#2F2A44"/>
<path d="M959.299 461.757C969.734 466.287 987.065 461.786 992.784 453.042C996.009 448.111 993.415 445 988.627 448.082C972.271 458.56 957.478 457.442 957.478 445.717C957.478 440.198 961.177 436.901 970.279 434.292C980.213 431.44 982.478 429.82 980.256 427.139C979.367 426.064 977.188 425.176 975.439 425.176C970.121 425.176 962.553 419.155 962.022 414.511C960.216 398.901 983.094 395.661 994.017 409.967C1001.57 419.872 1007.09 414.038 1000.11 403.531C995.149 396.062 985.803 391.848 975.984 392.665C971.583 393.023 965.907 394.4 963.384 395.704C953.264 400.936 950.053 414.64 956.805 423.785L960.417 428.702L955.228 433.06C951.013 436.6 949.91 438.621 949.379 443.839C948.562 451.752 952.461 458.775 959.299 461.757Z" fill="#2F2A44"/>
<path d="M893.36 393.697C900.642 396.994 903.982 397.152 910.361 394.486C918.603 391.031 924.509 382.903 924.509 375.048C924.509 359.467 907.078 348.945 893.002 356.012C877.406 363.853 877.621 386.544 893.36 393.697Z" fill="#2F2A44"/>
<path d="M1200 0H0V630H1200V0Z" fill="url(#paint0_radial_184_2)"/>
<path d="M1200 0H0V630H1200V0Z" fill="url(#paint1_radial_184_2)"/>
<path d="M1200 0H0V630H1200V0Z" fill="url(#paint2_radial_184_2)"/>
<path d="M123.108 187.58V216H106.056C93.904 216 84.4307 213.06 77.636 207.18C70.8413 201.169 67.444 191.435 67.444 177.976V134.464H54.116V106.632H67.444V79.976H100.96V106.632H122.912V134.464H100.96V178.368C100.96 181.635 101.744 183.987 103.312 185.424C104.88 186.861 107.493 187.58 111.152 187.58H123.108ZM135.113 161.12C135.113 149.883 137.204 140.017 141.385 131.524C145.697 123.031 151.512 116.497 158.829 111.924C166.146 107.351 174.313 105.064 183.329 105.064C191.038 105.064 197.768 106.632 203.517 109.768C209.397 112.904 213.905 117.02 217.041 122.116V106.632H250.557V216H217.041V200.516C213.774 205.612 209.201 209.728 203.321 212.864C197.572 216 190.842 217.568 183.133 217.568C174.248 217.568 166.146 215.281 158.829 210.708C151.512 206.004 145.697 199.405 141.385 190.912C137.204 182.288 135.113 172.357 135.113 161.12ZM217.041 161.316C217.041 152.953 214.689 146.355 209.985 141.52C205.412 136.685 199.793 134.268 193.129 134.268C186.465 134.268 180.781 136.685 176.077 141.52C171.504 146.224 169.217 152.757 169.217 161.12C169.217 169.483 171.504 176.147 176.077 181.112C180.781 185.947 186.465 188.364 193.129 188.364C199.793 188.364 205.412 185.947 209.985 181.112C214.689 176.277 217.041 169.679 217.041 161.316ZM341.64 216L308.32 170.136V216H274.804V70.96H308.32V151.124L341.444 106.632H382.8L337.328 161.512L383.192 216H341.64ZM445.749 217.568C435.034 217.568 425.365 215.281 416.741 210.708C408.247 206.135 401.518 199.601 396.553 191.108C391.718 182.615 389.301 172.684 389.301 161.316C389.301 150.079 391.783 140.213 396.748 131.72C401.714 123.096 408.509 116.497 417.133 111.924C425.757 107.351 435.426 105.064 446.141 105.064C456.855 105.064 466.525 107.351 475.149 111.924C483.773 116.497 490.567 123.096 495.533 131.72C500.498 140.213 502.981 150.079 502.981 161.316C502.981 172.553 500.433 182.484 495.337 191.108C490.371 199.601 483.511 206.135 474.757 210.708C466.133 215.281 456.463 217.568 445.749 217.568ZM445.749 188.56C452.151 188.56 457.574 186.208 462.017 181.504C466.59 176.8 468.877 170.071 468.877 161.316C468.877 152.561 466.655 145.832 462.213 141.128C457.901 136.424 452.543 134.072 446.141 134.072C439.607 134.072 434.185 136.424 429.873 141.128C425.561 145.701 423.405 152.431 423.405 161.316C423.405 170.071 425.495 176.8 429.677 181.504C433.989 186.208 439.346 188.56 445.749 188.56Z" fill="#2F2A44"/>
<path d="M536.441 217.568C530.561 217.568 525.727 215.869 521.937 212.472C518.279 208.944 516.449 204.632 516.449 199.536C516.449 194.309 518.279 189.932 521.937 186.404C525.727 182.876 530.561 181.112 536.441 181.112C542.191 181.112 546.895 182.876 550.553 186.404C554.343 189.932 556.237 194.309 556.237 199.536C556.237 204.632 554.343 208.944 550.553 212.472C546.895 215.869 542.191 217.568 536.441 217.568ZM620.57 217.568C611.031 217.568 602.538 215.935 595.09 212.668C587.642 209.401 581.762 204.959 577.45 199.34C573.138 193.591 570.72 187.188 570.198 180.132H603.322C603.714 183.921 605.478 186.992 608.614 189.344C611.75 191.696 615.604 192.872 620.178 192.872C624.359 192.872 627.56 192.088 629.782 190.52C632.134 188.821 633.31 186.665 633.31 184.052C633.31 180.916 631.676 178.629 628.41 177.192C625.143 175.624 619.851 173.925 612.534 172.096C604.694 170.267 598.16 168.372 592.934 166.412C587.707 164.321 583.199 161.12 579.41 156.808C575.62 152.365 573.726 146.42 573.726 138.972C573.726 132.7 575.424 127.016 578.822 121.92C582.35 116.693 587.446 112.577 594.11 109.572C600.904 106.567 608.94 105.064 618.218 105.064C631.938 105.064 642.718 108.461 650.558 115.256C658.528 122.051 663.102 131.067 664.278 142.304H633.31C632.787 138.515 631.088 135.509 628.214 133.288C625.47 131.067 621.811 129.956 617.238 129.956C613.318 129.956 610.312 130.74 608.222 132.308C606.131 133.745 605.086 135.771 605.086 138.384C605.086 141.52 606.719 143.872 609.986 145.44C613.383 147.008 618.61 148.576 625.666 150.144C633.767 152.235 640.366 154.325 645.462 156.416C650.558 158.376 655 161.643 658.79 166.216C662.71 170.659 664.735 176.669 664.866 184.248C664.866 190.651 663.036 196.4 659.378 201.496C655.85 206.461 650.688 210.381 643.894 213.256C637.23 216.131 629.455 217.568 620.57 217.568ZM752.599 105.456C765.143 105.456 775.204 109.637 782.783 118C790.361 126.232 794.151 137.6 794.151 152.104V216H760.831V156.612C760.831 149.295 758.936 143.611 755.147 139.56C751.357 135.509 746.261 133.484 739.859 133.484C733.456 133.484 728.36 135.509 724.571 139.56C720.781 143.611 718.887 149.295 718.887 156.612V216H685.371V70.96H718.887V121.332C722.284 116.497 726.923 112.643 732.803 109.768C738.683 106.893 745.281 105.456 752.599 105.456Z" fill="#C4605C"/>
<path d="M70.48 316.64C68.6027 316.64 66.7253 316.491 64.848 316.192C62.9707 315.936 61.2 315.531 59.536 314.976C57.872 314.379 56.3787 313.653 55.056 312.8C54.288 312.288 53.7547 311.669 53.456 310.944C53.1573 310.219 53.0507 309.515 53.136 308.832C53.264 308.107 53.5413 307.488 53.968 306.976C54.4373 306.421 55.0133 306.08 55.696 305.952C56.3787 305.824 57.1253 306.016 57.936 306.528C59.8133 307.637 61.7973 308.448 63.888 308.96C65.9787 309.472 68.176 309.728 70.48 309.728C73.8507 309.728 76.304 309.173 77.84 308.064C79.376 306.912 80.144 305.44 80.144 303.648C80.144 302.155 79.5893 300.981 78.48 300.128C77.4133 299.275 75.5573 298.571 72.912 298.016L65.872 296.544C61.8187 295.691 58.7893 294.261 56.784 292.256C54.8213 290.208 53.84 287.52 53.84 284.192C53.84 282.101 54.2667 280.203 55.12 278.496C55.9733 276.789 57.168 275.317 58.704 274.08C60.2827 272.843 62.1387 271.904 64.272 271.264C66.448 270.581 68.8373 270.24 71.44 270.24C74 270.24 76.432 270.56 78.736 271.2C81.04 271.84 83.1093 272.779 84.944 274.016C85.6267 274.485 86.0747 275.061 86.288 275.744C86.544 276.427 86.608 277.109 86.48 277.792C86.352 278.432 86.0533 278.987 85.584 279.456C85.1147 279.925 84.5173 280.203 83.792 280.288C83.1093 280.373 82.32 280.16 81.424 279.648C79.8453 278.752 78.2453 278.112 76.624 277.728C75.0027 277.344 73.2533 277.152 71.376 277.152C69.4133 277.152 67.728 277.429 66.32 277.984C64.912 278.539 63.824 279.328 63.056 280.352C62.3307 281.333 61.968 282.507 61.968 283.872C61.968 285.408 62.48 286.645 63.504 287.584C64.528 288.48 66.2773 289.184 68.752 289.696L75.728 291.168C79.952 292.064 83.088 293.472 85.136 295.392C87.2267 297.312 88.272 299.872 88.272 303.072C88.272 305.12 87.8453 306.976 86.992 308.64C86.1813 310.304 84.9867 311.733 83.408 312.928C81.872 314.123 80.016 315.04 77.84 315.68C75.664 316.32 73.2107 316.64 70.48 316.64ZM98.503 316.512C97.223 316.512 96.2417 316.171 95.559 315.488C94.8763 314.763 94.535 313.739 94.535 312.416V274.4C94.535 273.077 94.8763 272.075 95.559 271.392C96.2417 270.709 97.223 270.368 98.503 270.368C99.783 270.368 100.764 270.709 101.447 271.392C102.172 272.075 102.535 273.077 102.535 274.4V290.976H101.639C102.578 288.715 104.028 287.008 105.991 285.856C107.996 284.661 110.258 284.064 112.775 284.064C115.292 284.064 117.362 284.533 118.983 285.472C120.604 286.411 121.82 287.84 122.631 289.76C123.442 291.637 123.847 294.027 123.847 296.928V312.416C123.847 313.739 123.506 314.763 122.823 315.488C122.14 316.171 121.159 316.512 119.879 316.512C118.599 316.512 117.596 316.171 116.871 315.488C116.188 314.763 115.847 313.739 115.847 312.416V297.312C115.847 294.88 115.378 293.109 114.439 292C113.543 290.891 112.135 290.336 110.215 290.336C107.868 290.336 105.991 291.083 104.583 292.576C103.218 294.027 102.535 295.968 102.535 298.4V312.416C102.535 315.147 101.191 316.512 98.503 316.512ZM135.941 316.448C134.661 316.448 133.679 316.064 132.997 315.296C132.314 314.528 131.973 313.461 131.973 312.096V288.608C131.973 287.2 132.314 286.133 132.997 285.408C133.679 284.64 134.661 284.256 135.941 284.256C137.221 284.256 138.202 284.64 138.885 285.408C139.61 286.133 139.973 287.2 139.973 288.608V312.096C139.973 313.461 139.631 314.528 138.949 315.296C138.266 316.064 137.263 316.448 135.941 316.448ZM135.941 278.304C134.447 278.304 133.274 277.941 132.421 277.216C131.61 276.448 131.205 275.403 131.205 274.08C131.205 272.715 131.61 271.669 132.421 270.944C133.274 270.219 134.447 269.856 135.941 269.856C137.477 269.856 138.65 270.219 139.461 270.944C140.271 271.669 140.677 272.715 140.677 274.08C140.677 275.403 140.271 276.448 139.461 277.216C138.65 277.941 137.477 278.304 135.941 278.304ZM152.253 328.032C150.973 328.032 149.992 327.691 149.309 327.008C148.626 326.325 148.285 325.323 148.285 324V288.224C148.285 286.901 148.626 285.899 149.309 285.216C149.992 284.533 150.952 284.192 152.189 284.192C153.469 284.192 154.45 284.533 155.133 285.216C155.816 285.899 156.157 286.901 156.157 288.224V293.216L155.453 291.296C156.093 289.12 157.394 287.371 159.357 286.048C161.362 284.725 163.688 284.064 166.333 284.064C169.064 284.064 171.453 284.725 173.501 286.048C175.592 287.371 177.213 289.248 178.365 291.68C179.517 294.069 180.093 296.949 180.093 300.32C180.093 303.648 179.517 306.549 178.365 309.024C177.213 311.456 175.613 313.333 173.565 314.656C171.517 315.979 169.106 316.64 166.333 316.64C163.73 316.64 161.448 316 159.485 314.72C157.522 313.397 156.2 311.691 155.517 309.6H156.285V324C156.285 325.323 155.922 326.325 155.197 327.008C154.514 327.691 153.533 328.032 152.253 328.032ZM164.093 310.56C165.672 310.56 167.058 310.176 168.253 309.408C169.448 308.64 170.365 307.509 171.005 306.016C171.688 304.48 172.029 302.581 172.029 300.32C172.029 296.907 171.304 294.368 169.853 292.704C168.402 290.997 166.482 290.144 164.093 290.144C162.514 290.144 161.128 290.528 159.933 291.296C158.738 292.021 157.8 293.152 157.117 294.688C156.477 296.181 156.157 298.059 156.157 300.32C156.157 303.691 156.882 306.251 158.333 308C159.784 309.707 161.704 310.56 164.093 310.56ZM208.003 316.448C206.723 316.448 205.742 316.064 205.059 315.296C204.376 314.528 204.035 313.461 204.035 312.096V288.608C204.035 287.2 204.376 286.133 205.059 285.408C205.742 284.64 206.723 284.256 208.003 284.256C209.283 284.256 210.264 284.64 210.947 285.408C211.672 286.133 212.035 287.2 212.035 288.608V312.096C212.035 313.461 211.694 314.528 211.011 315.296C210.328 316.064 209.326 316.448 208.003 316.448ZM208.003 278.304C206.51 278.304 205.336 277.941 204.483 277.216C203.672 276.448 203.267 275.403 203.267 274.08C203.267 272.715 203.672 271.669 204.483 270.944C205.336 270.219 206.51 269.856 208.003 269.856C209.539 269.856 210.712 270.219 211.523 270.944C212.334 271.669 212.739 272.715 212.739 274.08C212.739 275.403 212.334 276.448 211.523 277.216C210.712 277.941 209.539 278.304 208.003 278.304ZM234.684 316.64C231.91 316.64 229.585 316.171 227.708 315.232C225.873 314.293 224.508 312.928 223.612 311.136C222.716 309.301 222.268 307.04 222.268 304.352V290.72H218.94C217.916 290.72 217.126 290.464 216.572 289.952C216.017 289.397 215.739 288.651 215.739 287.712C215.739 286.731 216.017 285.984 216.572 285.472C217.126 284.96 217.916 284.704 218.94 284.704H222.268V278.88C222.268 277.557 222.609 276.555 223.292 275.872C224.017 275.189 225.02 274.848 226.3 274.848C227.58 274.848 228.561 275.189 229.244 275.872C229.926 276.555 230.268 277.557 230.268 278.88V284.704H237.052C238.076 284.704 238.865 284.96 239.42 285.472C239.974 285.984 240.252 286.731 240.252 287.712C240.252 288.651 239.974 289.397 239.42 289.952C238.865 290.464 238.076 290.72 237.052 290.72H230.268V303.904C230.268 305.952 230.716 307.488 231.612 308.512C232.508 309.536 233.958 310.048 235.964 310.048C236.689 310.048 237.329 309.984 237.884 309.856C238.438 309.728 238.929 309.643 239.356 309.6C239.868 309.557 240.294 309.728 240.636 310.112C240.977 310.453 241.148 311.179 241.148 312.288C241.148 313.141 240.998 313.909 240.7 314.592C240.444 315.232 239.953 315.68 239.228 315.936C238.673 316.107 237.948 316.256 237.052 316.384C236.156 316.555 235.366 316.64 234.684 316.64ZM272.973 316.64C269.432 316.64 266.765 315.637 264.973 313.632C263.181 311.584 262.285 308.597 262.285 304.672V274.4C262.285 273.077 262.626 272.075 263.309 271.392C263.992 270.709 264.973 270.368 266.253 270.368C267.533 270.368 268.514 270.709 269.197 271.392C269.922 272.075 270.285 273.077 270.285 274.4V304.288C270.285 306.251 270.69 307.701 271.501 308.64C272.354 309.579 273.549 310.048 275.085 310.048C275.426 310.048 275.746 310.048 276.045 310.048C276.344 310.005 276.642 309.963 276.941 309.92C277.538 309.835 277.944 310.005 278.157 310.432C278.37 310.816 278.477 311.627 278.477 312.864C278.477 313.931 278.264 314.763 277.837 315.36C277.41 315.957 276.706 316.32 275.725 316.448C275.298 316.491 274.85 316.533 274.381 316.576C273.912 316.619 273.442 316.64 272.973 316.64ZM286.691 316.448C285.411 316.448 284.429 316.064 283.747 315.296C283.064 314.528 282.723 313.461 282.723 312.096V288.608C282.723 287.2 283.064 286.133 283.747 285.408C284.429 284.64 285.411 284.256 286.691 284.256C287.971 284.256 288.952 284.64 289.635 285.408C290.36 286.133 290.723 287.2 290.723 288.608V312.096C290.723 313.461 290.381 314.528 289.699 315.296C289.016 316.064 288.013 316.448 286.691 316.448ZM286.691 278.304C285.197 278.304 284.024 277.941 283.171 277.216C282.36 276.448 281.955 275.403 281.955 274.08C281.955 272.715 282.36 271.669 283.171 270.944C284.024 270.219 285.197 269.856 286.691 269.856C288.227 269.856 289.4 270.219 290.211 270.944C291.021 271.669 291.427 272.715 291.427 274.08C291.427 275.403 291.021 276.448 290.211 277.216C289.4 277.941 288.227 278.304 286.691 278.304ZM303.003 316.512C301.723 316.512 300.742 316.171 300.059 315.488C299.376 314.763 299.035 313.739 299.035 312.416V274.4C299.035 273.077 299.376 272.075 300.059 271.392C300.742 270.709 301.723 270.368 303.003 270.368C304.283 270.368 305.264 270.709 305.947 271.392C306.672 272.075 307.035 273.077 307.035 274.4V298.016H307.163L317.723 286.88C318.576 286.027 319.323 285.365 319.963 284.896C320.603 284.427 321.478 284.192 322.587 284.192C323.696 284.192 324.528 284.491 325.083 285.088C325.68 285.643 325.979 286.325 325.979 287.136C325.979 287.947 325.595 288.757 324.827 289.568L313.691 301.344V298.016L325.915 311.2C326.683 312.011 327.024 312.843 326.939 313.696C326.896 314.507 326.555 315.189 325.915 315.744C325.275 316.256 324.464 316.512 323.483 316.512C322.288 316.512 321.328 316.277 320.603 315.808C319.92 315.339 319.152 314.635 318.299 313.696L307.163 302.048H307.035V312.416C307.035 315.147 305.691 316.512 303.003 316.512ZM348.147 316.64C344.605 316.64 341.555 315.979 338.995 314.656C336.435 313.333 334.451 311.456 333.043 309.024C331.677 306.592 330.995 303.712 330.995 300.384C330.995 297.141 331.656 294.304 332.979 291.872C334.344 289.44 336.2 287.541 338.547 286.176C340.936 284.768 343.645 284.064 346.675 284.064C348.893 284.064 350.877 284.427 352.627 285.152C354.419 285.877 355.933 286.923 357.171 288.288C358.451 289.653 359.411 291.317 360.051 293.28C360.733 295.2 361.075 297.376 361.075 299.808C361.075 300.576 360.797 301.173 360.243 301.6C359.731 301.984 358.984 302.176 358.003 302.176H337.459V297.568H355.443L354.419 298.528C354.419 296.565 354.12 294.923 353.523 293.6C352.968 292.277 352.136 291.275 351.027 290.592C349.96 289.867 348.616 289.504 346.995 289.504C345.203 289.504 343.667 289.931 342.387 290.784C341.149 291.595 340.189 292.768 339.507 294.304C338.867 295.797 338.547 297.589 338.547 299.68V300.128C338.547 303.627 339.357 306.251 340.979 308C342.643 309.707 345.075 310.56 348.275 310.56C349.384 310.56 350.621 310.432 351.987 310.176C353.395 309.877 354.717 309.387 355.955 308.704C356.851 308.192 357.64 307.979 358.323 308.064C359.005 308.107 359.539 308.341 359.923 308.768C360.349 309.195 360.605 309.728 360.691 310.368C360.776 310.965 360.648 311.584 360.307 312.224C360.008 312.864 359.475 313.419 358.707 313.888C357.213 314.827 355.485 315.531 353.523 316C351.603 316.427 349.811 316.64 348.147 316.64ZM389.777 316.512C388.454 316.512 387.409 316.149 386.641 315.424C385.916 314.656 385.553 313.568 385.553 312.16V275.232C385.553 273.824 385.916 272.757 386.641 272.032C387.409 271.264 388.497 270.88 389.905 270.88H412.241C413.35 270.88 414.182 271.157 414.737 271.712C415.292 272.267 415.569 273.056 415.569 274.08C415.569 275.147 415.292 275.979 414.737 276.576C414.182 277.131 413.35 277.408 412.241 277.408H393.745V290.144H410.897C411.964 290.144 412.774 290.421 413.329 290.976C413.926 291.531 414.225 292.32 414.225 293.344C414.225 294.411 413.926 295.243 413.329 295.84C412.774 296.395 411.964 296.672 410.897 296.672H393.745V312.16C393.745 315.061 392.422 316.512 389.777 316.512ZM436.967 316.512C435.644 316.512 434.62 316.149 433.895 315.424C433.212 314.656 432.871 313.611 432.871 312.288V277.728H420.391C419.281 277.728 418.407 277.429 417.767 276.832C417.169 276.192 416.87 275.339 416.87 274.272C416.87 273.163 417.169 272.331 417.767 271.776C418.407 271.179 419.281 270.88 420.391 270.88H453.543C454.652 270.88 455.505 271.179 456.103 271.776C456.743 272.331 457.062 273.163 457.062 274.272C457.062 275.339 456.743 276.192 456.103 276.832C455.505 277.429 454.652 277.728 453.543 277.728H441.063V312.288C441.063 313.611 440.721 314.656 440.039 315.424C439.356 316.149 438.332 316.512 436.967 316.512ZM465.837 316.512C464.514 316.512 463.49 316.149 462.765 315.424C462.082 314.656 461.741 313.611 461.741 312.288V275.04C461.741 273.675 462.103 272.651 462.829 271.968C463.554 271.243 464.578 270.88 465.901 270.88H481.325C486.274 270.88 490.093 272.117 492.781 274.592C495.469 277.067 496.812 280.523 496.812 284.96C496.812 289.397 495.469 292.875 492.781 295.392C490.093 297.867 486.274 299.104 481.325 299.104H469.933V312.288C469.933 313.611 469.591 314.656 468.909 315.424C468.226 316.149 467.202 316.512 465.837 316.512ZM469.933 292.64H480.045C482.946 292.64 485.143 292 486.637 290.72C488.13 289.397 488.877 287.477 488.877 284.96C488.877 282.443 488.13 280.544 486.637 279.264C485.143 277.984 482.946 277.344 480.045 277.344H469.933V292.64Z" fill="#2F2A44"/>
</g>
<defs>
<radialGradient id="paint0_radial_184_2" cx="0" cy="0" r="1" gradientUnits="userSpaceOnUse" gradientTransform="translate(180 63) scale(540 283.5)">
<stop stop-color="#E88783" stop-opacity="0.24"/>
<stop offset="1" stop-color="#E88783" stop-opacity="0"/>
</radialGradient>
<radialGradient id="paint1_radial_184_2" cx="0" cy="0" r="1" gradientUnits="userSpaceOnUse" gradientTransform="translate(1056 50.4) scale(480 252)">
<stop stop-color="#9BC4B6" stop-opacity="0.22"/>
<stop offset="1" stop-color="#9BC4B6" stop-opacity="0"/>
</radialGradient>
<radialGradient id="paint2_radial_184_2" cx="0" cy="0" r="1" gradientUnits="userSpaceOnUse" gradientTransform="translate(480 579.6) scale(540 283.5)">
<stop stop-color="#9EC9FF" stop-opacity="0.16"/>
<stop offset="1" stop-color="#9EC9FF" stop-opacity="0"/>
</radialGradient>
<clipPath id="clip0_184_2">
<rect width="1200" height="630" fill="white"/>
</clipPath>
</defs>
</svg>
