<svg width="1200" height="630" viewBox="0 0 1200 630" fill="none" xmlns="http://www.w3.org/2000/svg">
<g clip-path="url(#clip0_184_2)">
<path d="M1200 0H0V630H1200V0Z" fill="#FFF9F4"/>
<path d="M1200 0H0V630H1200V0Z" fill="url(#paint0_radial_184_2)"/>
<path d="M1200 0H0V630H1200V0Z" fill="url(#paint1_radial_184_2)"/>
<path d="M1200 0H0V630H1200V0Z" fill="url(#paint2_radial_184_2)"/>
<path d="M920.241 533.038C916.296 535.369 909.068 536.598 904.632 535.711C897.608 534.3 891.792 526.228 891.792 517.91C891.792 511.998 887.408 494.903 884.083 487.804C882.704 484.875 878.791 477.316 875.392 471.008C867.705 456.757 865.278 448.568 863.909 432.221C863.311 425.176 862.434 419.007 861.964 418.537C860.691 417.264 848.504 429.965 842.57 438.721C830.318 456.821 826.234 477.07 830.297 499.575C833.311 516.264 831.868 523.491 824.94 526.388C809.289 532.92 791.349 517.108 784.87 491.065C782.764 482.598 782.561 479.647 783.053 465.406C783.994 438.433 790.259 421.968 809.887 394.802C812.004 391.862 813.747 389.168 813.747 388.805C813.747 388.441 807.129 388.174 799.047 388.195C781.513 388.26 773.238 386.324 756.55 378.253C727.459 364.183 704.206 337.659 695.129 308.205C692.253 298.861 691.024 280.857 692.884 275.223C696.498 264.275 707.691 258.865 717.827 263.153C722.819 265.269 724.498 267.621 728.229 277.757C733.222 291.345 736.793 298.957 741.497 306.067C755.235 326.818 777.761 340.834 805.098 345.613C814.549 347.27 825.699 347.751 826.897 346.554C827.271 346.179 824.192 343.496 820.044 340.588C804.478 329.651 789.115 311.904 780.936 295.375C771.667 276.687 768.844 263.174 768.844 237.59C768.844 221.415 769.208 217.181 771.474 207.366C777.975 179.153 789.008 159.043 808.733 139.425C819.873 128.349 830.286 120.523 842.613 113.969C889.172 89.1981 950.988 88.6422 998.841 112.569C1026.19 126.243 1049.27 149.1 1062.75 175.849C1075.93 202.01 1080.68 234.917 1075.69 265.622C1074.36 273.758 1071.93 284.374 1070.26 289.217C1058.42 323.846 1032.01 349.75 997.345 360.73C992.213 362.355 988.011 364.215 988.011 364.857C988.011 367.059 995.998 373.827 1004.86 379.151C1021.84 389.339 1041.11 394.514 1062.85 394.696C1075.98 394.813 1087.96 393.188 1099.2 389.778C1103.03 388.623 1110.98 387.404 1116.88 387.083C1128.63 386.442 1131.93 387.372 1138.05 393.049C1142.13 396.844 1143.72 400.18 1144.49 406.616C1145.56 415.554 1140.5 423.091 1128.06 431.109C1121.16 435.568 1114.25 438.582 1104.01 441.619C1090.23 445.703 1086.8 446.088 1063.38 446.088C1040.83 446.088 1039.42 445.97 1029.17 443.083C1009.52 437.545 992.245 428.041 977.994 414.923C966.896 404.713 966.095 405.975 973.739 421.691C985.039 444.912 1001.85 463.001 1025.09 476.963C1047.49 490.413 1053.65 500.024 1045.69 509.09C1041.07 514.361 1034.45 516.585 1023.37 516.606C1009.68 516.627 996.639 511.827 980.88 500.965C971.846 494.743 956.088 478.792 949.769 469.469C941.986 457.997 934.524 441.929 929.627 426.074C928.761 423.283 927.564 420.996 926.965 420.996C918.637 420.996 915.419 444.152 920.454 467.694C921.737 473.671 923.266 479.839 923.854 481.379C927.414 490.734 930.461 506.385 930.012 512.939C929.392 521.812 925.426 529.98 920.241 533.038ZM850.385 259.603C855.816 262.062 858.307 262.18 863.065 260.191C869.212 257.615 873.617 251.553 873.617 245.694C873.617 234.073 860.616 226.226 850.118 231.496C838.486 237.344 838.646 254.268 850.385 259.603ZM975.086 271.021C977.727 272.796 980.239 273.459 984.387 273.459C989.177 273.459 990.652 272.956 993.72 270.251C998.425 266.125 1000.18 261.773 999.515 255.872C998.435 246.314 989.07 239.771 980.239 242.412C977.748 243.16 974.188 245.405 972.253 247.458C969.152 250.751 968.767 251.831 968.778 257.23C968.8 264.542 970.286 267.782 975.086 271.021ZM899.564 310.364C907.347 313.743 920.273 310.386 924.538 303.864C926.944 300.186 925.009 297.866 921.438 300.165C909.24 307.98 898.206 307.146 898.206 298.401C898.206 294.285 900.965 291.826 907.753 289.88C915.162 287.753 916.852 286.545 915.194 284.545C914.532 283.744 912.907 283.081 911.602 283.081C907.636 283.081 901.991 278.59 901.595 275.127C900.248 263.484 917.311 261.068 925.458 271.737C931.092 279.125 935.208 274.774 930.002 266.937C926.302 261.367 919.332 258.224 912.009 258.833C908.726 259.101 904.493 260.127 902.611 261.1C895.063 265.002 892.668 275.223 897.704 282.044L900.398 285.711L896.528 288.961C893.385 291.601 892.561 293.109 892.166 297C891.556 302.902 894.464 308.141 899.564 310.364Z" fill="#E88783"/>
<path d="M975.086 271.021C977.727 272.796 980.239 273.459 984.387 273.459C989.177 273.459 990.652 272.956 993.72 270.251C998.425 266.125 1000.18 261.773 999.515 255.872C998.435 246.314 989.07 239.771 980.239 242.412C977.748 243.16 974.188 245.405 972.253 247.458C969.152 250.751 968.767 251.831 968.778 257.23C968.8 264.542 970.286 267.782 975.086 271.021Z" fill="#2F2A44"/>
<path d="M899.564 310.364C907.347 313.743 920.273 310.386 924.538 303.864C926.944 300.186 925.009 297.866 921.438 300.165C909.24 307.98 898.206 307.146 898.206 298.401C898.206 294.285 900.965 291.826 907.753 289.88C915.162 287.753 916.852 286.545 915.194 284.545C914.532 283.743 912.907 283.081 911.602 283.081C907.636 283.081 901.991 278.59 901.595 275.126C900.248 263.484 917.311 261.068 925.458 271.737C931.092 279.125 935.208 274.774 930.002 266.937C926.302 261.367 919.332 258.224 912.009 258.833C908.726 259.101 904.493 260.127 902.611 261.1C895.063 265.002 892.668 275.223 897.704 282.044L900.398 285.711L896.528 288.961C893.385 291.601 892.561 293.109 892.166 297C891.556 302.902 894.464 308.141 899.564 310.364Z" fill="#2F2A44"/>
<path d="M850.385 259.603C855.816 262.062 858.307 262.18 863.065 260.191C869.212 257.615 873.617 251.553 873.617 245.694C873.617 234.073 860.617 226.226 850.118 231.496C838.486 237.344 838.646 254.268 850.385 259.603Z" fill="#2F2A44"/>
<path d="M163.108 257.58V286H146.056C133.904 286 124.431 283.06 117.636 277.18C110.841 271.169 107.444 261.435 107.444 247.976V204.464H94.116V176.632H107.444V149.976H140.96V176.632H162.912V204.464H140.96V248.368C140.96 251.635 141.744 253.987 143.312 255.424C144.88 256.861 147.493 257.58 151.152 257.58H163.108ZM175.113 231.12C175.113 219.883 177.204 210.017 181.385 201.524C185.697 193.031 191.512 186.497 198.829 181.924C206.146 177.351 214.313 175.064 223.329 175.064C231.038 175.064 237.768 176.632 243.517 179.768C249.397 182.904 253.905 187.02 257.041 192.116V176.632H290.557V286H257.041V270.516C253.774 275.612 249.201 279.728 243.321 282.864C237.572 286 230.842 287.568 223.133 287.568C214.248 287.568 206.146 285.281 198.829 280.708C191.512 276.004 185.697 269.405 181.385 260.912C177.204 252.288 175.113 242.357 175.113 231.12ZM257.041 231.316C257.041 222.953 254.689 216.355 249.985 211.52C245.412 206.685 239.793 204.268 233.129 204.268C226.465 204.268 220.781 206.685 216.077 211.52C211.504 216.224 209.217 222.757 209.217 231.12C209.217 239.483 211.504 246.147 216.077 251.112C220.781 255.947 226.465 258.364 233.129 258.364C239.793 258.364 245.412 255.947 249.985 251.112C254.689 246.277 257.041 239.679 257.041 231.316ZM381.64 286L348.32 240.136V286H314.804V140.96H348.32V221.124L381.444 176.632H422.8L377.328 231.512L423.192 286H381.64ZM485.749 287.568C475.034 287.568 465.365 285.281 456.741 280.708C448.247 276.135 441.518 269.601 436.553 261.108C431.718 252.615 429.301 242.684 429.301 231.316C429.301 220.079 431.783 210.213 436.748 201.72C441.714 193.096 448.509 186.497 457.133 181.924C465.757 177.351 475.426 175.064 486.141 175.064C496.855 175.064 506.525 177.351 515.149 181.924C523.773 186.497 530.567 193.096 535.533 201.72C540.498 210.213 542.981 220.079 542.981 231.316C542.981 242.553 540.433 252.484 535.337 261.108C530.371 269.601 523.511 276.135 514.757 280.708C506.133 285.281 496.463 287.568 485.749 287.568ZM485.749 258.56C492.151 258.56 497.574 256.208 502.017 251.504C506.59 246.8 508.877 240.071 508.877 231.316C508.877 222.561 506.655 215.832 502.213 211.128C497.901 206.424 492.543 204.072 486.141 204.072C479.607 204.072 474.185 206.424 469.873 211.128C465.561 215.701 463.405 222.431 463.405 231.316C463.405 240.071 465.495 246.8 469.677 251.504C473.989 256.208 479.346 258.56 485.749 258.56Z" fill="#2F2A44"/>
<path d="M110.224 401.576C108.603 401.576 107.365 401.128 106.512 400.232C105.659 399.336 105.232 398.056 105.232 396.392V377.832L107.28 383.528L92.176 362.088C91.5787 361.192 91.3227 360.232 91.408 359.208C91.4933 358.141 91.92 357.224 92.688 356.456C93.456 355.688 94.544 355.304 95.952 355.304C96.976 355.304 97.8933 355.56 98.704 356.072C99.5573 356.584 100.368 357.395 101.136 358.504L111.376 373.288H109.328L119.568 358.504C120.379 357.352 121.168 356.541 121.936 356.072C122.747 355.56 123.685 355.304 124.752 355.304C126.117 355.304 127.184 355.667 127.952 356.392C128.72 357.075 129.125 357.949 129.168 359.016C129.211 360.04 128.848 361.107 128.08 362.216L113.168 383.528L115.152 377.832V396.392C115.152 399.848 113.509 401.576 110.224 401.576ZM143.753 401.704C140.383 401.704 137.439 401.043 134.922 399.72C132.447 398.397 130.527 396.499 129.161 394.024C127.796 391.549 127.114 388.627 127.114 385.256C127.114 382.739 127.498 380.477 128.266 378.472C129.034 376.467 130.143 374.76 131.594 373.352C133.087 371.901 134.858 370.813 136.906 370.088C138.954 369.32 141.236 368.936 143.753 368.936C147.124 368.936 150.047 369.597 152.522 370.92C155.039 372.243 156.98 374.12 158.346 376.552C159.754 378.984 160.458 381.885 160.458 385.256C160.458 387.816 160.052 390.099 159.242 392.104C158.474 394.109 157.364 395.837 155.914 397.288C154.463 398.739 152.692 399.848 150.602 400.616C148.554 401.341 146.271 401.704 143.753 401.704ZM143.753 394.472C145.162 394.472 146.378 394.131 147.402 393.448C148.426 392.765 149.236 391.763 149.834 390.44C150.431 389.075 150.73 387.347 150.73 385.256C150.73 382.141 150.09 379.859 148.81 378.408C147.53 376.915 145.844 376.168 143.753 376.168C142.388 376.168 141.172 376.488 140.106 377.128C139.082 377.768 138.271 378.771 137.674 380.136C137.119 381.459 136.842 383.165 136.842 385.256C136.842 388.371 137.482 390.696 138.762 392.232C140.042 393.725 141.706 394.472 143.753 394.472ZM177.921 401.704C175.276 401.704 173.078 401.213 171.329 400.232C169.58 399.251 168.278 397.779 167.425 395.816C166.614 393.811 166.209 391.336 166.209 388.392V373.928C166.209 372.307 166.614 371.091 167.425 370.28C168.278 369.469 169.473 369.064 171.009 369.064C172.545 369.064 173.74 369.469 174.593 370.28C175.446 371.091 175.873 372.307 175.873 373.928V388.648C175.873 390.525 176.257 391.933 177.025 392.872C177.793 393.768 179.009 394.216 180.673 394.216C182.508 394.216 184.001 393.576 185.153 392.296C186.348 390.973 186.945 389.245 186.945 387.112V373.928C186.945 372.307 187.35 371.091 188.161 370.28C189.014 369.469 190.209 369.064 191.745 369.064C193.324 369.064 194.518 369.469 195.329 370.28C196.182 371.091 196.609 372.307 196.609 373.928V396.648C196.609 399.933 195.052 401.576 191.937 401.576C190.401 401.576 189.228 401.149 188.417 400.296C187.606 399.443 187.201 398.227 187.201 396.648V392.36L188.161 394.856C187.222 397.032 185.878 398.717 184.129 399.912C182.38 401.107 180.31 401.704 177.921 401.704ZM209.079 401.576C207.458 401.576 206.22 401.149 205.367 400.296C204.514 399.443 204.087 398.227 204.087 396.648V373.928C204.087 372.349 204.492 371.155 205.303 370.344C206.156 369.491 207.33 369.064 208.823 369.064C210.359 369.064 211.532 369.491 212.343 370.344C213.154 371.155 213.559 372.349 213.559 373.928V377.256H212.919C213.431 374.696 214.562 372.712 216.311 371.304C218.06 369.896 220.322 369.107 223.095 368.936C224.162 368.851 224.972 369.128 225.527 369.768C226.124 370.365 226.444 371.368 226.487 372.776C226.572 374.099 226.295 375.144 225.655 375.912C225.058 376.68 224.034 377.149 222.583 377.32L221.111 377.448C218.679 377.661 216.866 378.365 215.671 379.56C214.519 380.755 213.943 382.483 213.943 384.744V396.648C213.943 398.227 213.516 399.443 212.663 400.296C211.852 401.149 210.658 401.576 209.079 401.576ZM258.961 401.704C256.657 401.704 254.588 401.256 252.753 400.36C250.918 399.464 249.489 398.248 248.465 396.712C247.441 395.176 246.929 393.448 246.929 391.528C246.929 389.224 247.526 387.411 248.721 386.088C249.916 384.723 251.857 383.763 254.545 383.208C257.233 382.611 260.796 382.312 265.233 382.312H268.625V387.304H265.297C263.121 387.304 261.35 387.432 259.985 387.688C258.662 387.901 257.702 388.285 257.105 388.84C256.55 389.395 256.273 390.163 256.273 391.144C256.273 392.339 256.678 393.32 257.489 394.088C258.342 394.856 259.558 395.24 261.137 395.24C262.374 395.24 263.462 394.963 264.401 394.408C265.382 393.811 266.15 393.021 266.705 392.04C267.26 391.016 267.537 389.864 267.537 388.584V381.224C267.537 379.347 267.11 378.024 266.257 377.256C265.404 376.445 263.953 376.04 261.905 376.04C260.753 376.04 259.494 376.189 258.129 376.488C256.806 376.744 255.334 377.192 253.713 377.832C252.774 378.259 251.942 378.365 251.217 378.152C250.492 377.896 249.937 377.469 249.553 376.872C249.169 376.232 248.977 375.549 248.977 374.824C248.977 374.056 249.19 373.331 249.617 372.648C250.044 371.923 250.748 371.389 251.729 371.048C253.734 370.237 255.612 369.683 257.361 369.384C259.153 369.085 260.796 368.936 262.289 368.936C265.574 368.936 268.262 369.427 270.353 370.408C272.486 371.347 274.086 372.819 275.153 374.824C276.22 376.787 276.753 379.325 276.753 382.44V396.648C276.753 398.227 276.369 399.443 275.601 400.296C274.833 401.149 273.724 401.576 272.273 401.576C270.822 401.576 269.692 401.149 268.881 400.296C268.113 399.443 267.729 398.227 267.729 396.648V394.28L268.177 394.664C267.921 396.115 267.366 397.373 266.513 398.44C265.702 399.464 264.657 400.275 263.377 400.872C262.097 401.427 260.625 401.704 258.961 401.704ZM288.826 413.096C287.247 413.096 286.031 412.669 285.178 411.816C284.367 411.005 283.962 409.789 283.962 408.168V373.928C283.962 372.349 284.367 371.155 285.178 370.344C286.031 369.491 287.205 369.064 288.698 369.064C290.277 369.064 291.471 369.491 292.282 370.344C293.093 371.155 293.498 372.349 293.498 373.928V378.28L292.794 375.784C293.434 373.736 294.714 372.093 296.634 370.856C298.597 369.576 300.837 368.936 303.354 368.936C306.085 368.936 308.474 369.597 310.522 370.92C312.613 372.243 314.234 374.12 315.386 376.552C316.538 378.984 317.114 381.885 317.114 385.256C317.114 388.627 316.538 391.549 315.386 394.024C314.234 396.499 312.634 398.397 310.586 399.72C308.538 401.043 306.127 401.704 303.354 401.704C300.879 401.704 298.682 401.107 296.762 399.912C294.842 398.675 293.541 397.075 292.858 395.112H293.626V408.168C293.626 409.789 293.199 411.005 292.346 411.816C291.535 412.669 290.362 413.096 288.826 413.096ZM300.474 394.472C301.839 394.472 303.034 394.131 304.058 393.448C305.125 392.765 305.935 391.763 306.49 390.44C307.087 389.075 307.386 387.347 307.386 385.256C307.386 382.141 306.746 379.859 305.466 378.408C304.186 376.915 302.522 376.168 300.474 376.168C299.109 376.168 297.893 376.488 296.826 377.128C295.802 377.768 294.991 378.771 294.394 380.136C293.797 381.459 293.498 383.165 293.498 385.256C293.498 388.371 294.138 390.696 295.418 392.232C296.698 393.725 298.383 394.472 300.474 394.472ZM327.889 413.096C326.31 413.096 325.094 412.669 324.241 411.816C323.43 411.005 323.025 409.789 323.025 408.168V373.928C323.025 372.349 323.43 371.155 324.241 370.344C325.094 369.491 326.267 369.064 327.76 369.064C329.339 369.064 330.534 369.491 331.345 370.344C332.155 371.155 332.561 372.349 332.561 373.928V378.28L331.857 375.784C332.497 373.736 333.777 372.093 335.697 370.856C337.659 369.576 339.899 368.936 342.417 368.936C345.147 368.936 347.537 369.597 349.585 370.92C351.675 372.243 353.297 374.12 354.449 376.552C355.601 378.984 356.177 381.885 356.177 385.256C356.177 388.627 355.601 391.549 354.449 394.024C353.297 396.499 351.697 398.397 349.649 399.72C347.601 401.043 345.19 401.704 342.417 401.704C339.942 401.704 337.745 401.107 335.825 399.912C333.905 398.675 332.603 397.075 331.921 395.112H332.689V408.168C332.689 409.789 332.262 411.005 331.409 411.816C330.598 412.669 329.425 413.096 327.889 413.096ZM339.537 394.472C340.902 394.472 342.097 394.131 343.121 393.448C344.187 392.765 344.998 391.763 345.553 390.44C346.15 389.075 346.449 387.347 346.449 385.256C346.449 382.141 345.809 379.859 344.529 378.408C343.249 376.915 341.585 376.168 339.537 376.168C338.171 376.168 336.955 376.488 335.889 377.128C334.865 377.768 334.054 378.771 333.457 380.136C332.859 381.459 332.561 383.165 332.561 385.256C332.561 388.371 333.201 390.696 334.481 392.232C335.761 393.725 337.446 394.472 339.537 394.472ZM399.354 401.704C396.837 401.704 394.597 401.085 392.634 399.848C390.714 398.568 389.434 396.883 388.794 394.792L389.498 392.68V396.648C389.498 398.227 389.093 399.443 388.282 400.296C387.471 401.149 386.298 401.576 384.762 401.576C383.226 401.576 382.031 401.149 381.178 400.296C380.367 399.443 379.962 398.227 379.962 396.648V360.232C379.962 358.611 380.367 357.395 381.178 356.584C382.031 355.731 383.247 355.304 384.826 355.304C386.362 355.304 387.535 355.731 388.346 356.584C389.199 357.395 389.626 358.611 389.626 360.232V375.4H388.858C389.541 373.48 390.842 371.923 392.762 370.728C394.682 369.533 396.879 368.936 399.354 368.936C402.127 368.936 404.538 369.597 406.586 370.92C408.634 372.243 410.234 374.12 411.386 376.552C412.538 378.984 413.114 381.885 413.114 385.256C413.114 388.627 412.538 391.549 411.386 394.024C410.234 396.499 408.613 398.397 406.522 399.72C404.474 401.043 402.085 401.704 399.354 401.704ZM396.474 394.472C397.839 394.472 399.034 394.131 400.058 393.448C401.125 392.765 401.935 391.763 402.49 390.44C403.087 389.075 403.386 387.347 403.386 385.256C403.386 382.141 402.746 379.859 401.466 378.408C400.186 376.915 398.522 376.168 396.474 376.168C395.109 376.168 393.893 376.488 392.826 377.128C391.802 377.768 390.991 378.771 390.394 380.136C389.797 381.459 389.498 383.165 389.498 385.256C389.498 388.371 390.138 390.696 391.418 392.232C392.698 393.725 394.383 394.472 396.474 394.472ZM435.345 401.704C431.633 401.704 428.433 401.043 425.745 399.72C423.099 398.355 421.051 396.456 419.601 394.024C418.193 391.549 417.489 388.648 417.489 385.32C417.489 382.077 418.171 379.24 419.536 376.808C420.902 374.333 422.801 372.413 425.233 371.048C427.707 369.64 430.502 368.936 433.617 368.936C435.878 368.936 437.926 369.32 439.761 370.088C441.595 370.813 443.174 371.88 444.497 373.288C445.819 374.653 446.822 376.339 447.505 378.344C448.187 380.307 448.529 382.504 448.529 384.936C448.529 385.747 448.273 386.365 447.761 386.792C447.249 387.176 446.502 387.368 445.521 387.368H425.425V382.376H441.553L440.529 383.272C440.529 381.523 440.273 380.072 439.761 378.92C439.249 377.725 438.502 376.829 437.521 376.232C436.582 375.635 435.409 375.336 434.001 375.336C432.422 375.336 431.078 375.699 429.969 376.424C428.859 377.149 428.006 378.195 427.409 379.56C426.811 380.925 426.513 382.568 426.513 384.488V385C426.513 388.243 427.259 390.632 428.753 392.168C430.289 393.704 432.55 394.472 435.537 394.472C436.561 394.472 437.734 394.344 439.057 394.088C440.379 393.832 441.617 393.427 442.769 392.872C443.75 392.403 444.625 392.253 445.393 392.424C446.161 392.552 446.758 392.893 447.185 393.448C447.611 394.003 447.846 394.643 447.889 395.368C447.974 396.093 447.825 396.819 447.441 397.544C447.057 398.227 446.417 398.803 445.521 399.272C444.07 400.083 442.427 400.68 440.593 401.064C438.801 401.491 437.051 401.704 435.345 401.704ZM465.478 401.704C461.68 401.704 458.843 400.659 456.966 398.568C455.088 396.435 454.15 393.277 454.15 389.096V360.232C454.15 358.611 454.555 357.395 455.366 356.584C456.219 355.731 457.435 355.304 459.014 355.304C460.55 355.304 461.723 355.731 462.534 356.584C463.387 357.395 463.814 358.611 463.814 360.232V388.712C463.814 390.461 464.176 391.763 464.902 392.616C465.67 393.427 466.672 393.832 467.91 393.832C468.251 393.832 468.571 393.811 468.87 393.768C469.168 393.725 469.488 393.704 469.83 393.704C470.512 393.619 470.982 393.832 471.238 394.344C471.536 394.813 471.686 395.773 471.686 397.224C471.686 398.504 471.43 399.485 470.918 400.168C470.406 400.808 469.616 401.235 468.55 401.448C468.123 401.491 467.632 401.533 467.078 401.576C466.523 401.661 465.99 401.704 465.478 401.704ZM490.253 401.704C486.883 401.704 483.939 401.043 481.422 399.72C478.947 398.397 477.027 396.499 475.661 394.024C474.296 391.549 473.614 388.627 473.614 385.256C473.614 382.739 473.998 380.477 474.766 378.472C475.534 376.467 476.643 374.76 478.094 373.352C479.587 371.901 481.358 370.813 483.406 370.088C485.454 369.32 487.736 368.936 490.253 368.936C493.624 368.936 496.547 369.597 499.022 370.92C501.539 372.243 503.48 374.12 504.846 376.552C506.254 378.984 506.958 381.885 506.958 385.256C506.958 387.816 506.552 390.099 505.742 392.104C504.974 394.109 503.864 395.837 502.414 397.288C500.963 398.739 499.192 399.848 497.102 400.616C495.054 401.341 492.771 401.704 490.253 401.704ZM490.253 394.472C491.662 394.472 492.878 394.131 493.902 393.448C494.926 392.765 495.736 391.763 496.334 390.44C496.931 389.075 497.23 387.347 497.23 385.256C497.23 382.141 496.59 379.859 495.31 378.408C494.03 376.915 492.344 376.168 490.253 376.168C488.888 376.168 487.672 376.488 486.606 377.128C485.582 377.768 484.771 378.771 484.174 380.136C483.619 381.459 483.342 383.165 483.342 385.256C483.342 388.371 483.982 390.696 485.262 392.232C486.542 393.725 488.206 394.472 490.253 394.472ZM517.701 401.576C516.122 401.576 514.906 401.149 514.053 400.296C513.242 399.443 512.837 398.227 512.837 396.648V373.928C512.837 372.349 513.242 371.155 514.053 370.344C514.906 369.491 516.08 369.064 517.573 369.064C519.109 369.064 520.282 369.491 521.093 370.344C521.904 371.155 522.309 372.349 522.309 373.928V377.576L521.605 375.464C522.586 373.373 524.037 371.773 525.957 370.664C527.92 369.512 530.138 368.936 532.613 368.936C535.13 368.936 537.2 369.427 538.821 370.408C540.442 371.347 541.658 372.797 542.469 374.76C543.28 376.68 543.685 379.133 543.685 382.12V396.648C543.685 398.227 543.258 399.443 542.405 400.296C541.594 401.149 540.4 401.576 538.821 401.576C537.285 401.576 536.09 401.149 535.237 400.296C534.426 399.443 534.021 398.227 534.021 396.648V382.568C534.021 380.392 533.616 378.835 532.805 377.896C532.037 376.915 530.842 376.424 529.221 376.424C527.173 376.424 525.53 377.064 524.293 378.344C523.098 379.624 522.501 381.331 522.501 383.464V396.648C522.501 399.933 520.901 401.576 517.701 401.576ZM566.003 413.224C563.7 413.224 561.481 413.032 559.348 412.648C557.257 412.264 555.401 411.688 553.78 410.92C552.798 410.493 552.094 409.939 551.668 409.256C551.284 408.573 551.113 407.848 551.156 407.08C551.241 406.312 551.497 405.629 551.924 405.032C552.393 404.435 552.969 404.008 553.652 403.752C554.334 403.539 555.06 403.603 555.828 403.944C557.705 404.797 559.433 405.352 561.012 405.608C562.633 405.864 564.02 405.992 565.172 405.992C567.902 405.992 569.95 405.373 571.316 404.136C572.681 402.899 573.364 401 573.364 398.44V393.576H573.94C573.3 395.539 571.977 397.139 569.972 398.376C567.966 399.613 565.748 400.232 563.316 400.232C560.5 400.232 558.046 399.592 555.956 398.312C553.865 396.989 552.244 395.155 551.092 392.808C549.94 390.419 549.364 387.667 549.364 384.552C549.364 382.205 549.684 380.072 550.324 378.152C551.006 376.232 551.945 374.589 553.14 373.224C554.377 371.859 555.849 370.813 557.556 370.088C559.305 369.32 561.225 368.936 563.316 368.936C565.833 368.936 568.052 369.555 569.972 370.792C571.934 371.987 573.236 373.565 573.876 375.528L573.236 377.576V373.928C573.236 372.349 573.641 371.155 574.452 370.344C575.305 369.491 576.5 369.064 578.036 369.064C579.572 369.064 580.745 369.491 581.556 370.344C582.366 371.155 582.772 372.349 582.772 373.928V397.352C582.772 402.6 581.321 406.547 578.42 409.192C575.561 411.88 571.422 413.224 566.003 413.224ZM566.196 393C567.646 393 568.884 392.659 569.908 391.976C570.974 391.293 571.806 390.333 572.404 389.096C573.001 387.816 573.3 386.301 573.3 384.552C573.3 381.907 572.638 379.859 571.316 378.408C570.036 376.915 568.329 376.168 566.196 376.168C564.745 376.168 563.486 376.509 562.42 377.192C561.353 377.832 560.521 378.792 559.924 380.072C559.369 381.309 559.092 382.803 559.092 384.552C559.092 387.197 559.732 389.267 561.012 390.76C562.292 392.253 564.02 393 566.196 393ZM602.307 401.704C600.429 401.704 598.488 401.533 596.483 401.192C594.52 400.851 592.728 400.275 591.107 399.464C590.253 399.037 589.635 398.504 589.251 397.864C588.909 397.181 588.76 396.499 588.803 395.816C588.845 395.133 589.059 394.515 589.443 393.96C589.869 393.405 590.403 393.043 591.043 392.872C591.725 392.659 592.472 392.723 593.283 393.064C595.032 393.789 596.632 394.301 598.083 394.6C599.533 394.899 600.963 395.048 602.371 395.048C604.205 395.048 605.528 394.771 606.339 394.216C607.192 393.619 607.619 392.851 607.619 391.912C607.619 391.059 607.341 390.419 606.787 389.992C606.232 389.565 605.421 389.267 604.355 389.096L597.635 387.88C594.989 387.411 592.941 386.451 591.491 385C590.083 383.507 589.379 381.608 589.379 379.304C589.379 377.171 589.976 375.336 591.171 373.8C592.365 372.221 594.008 371.027 596.099 370.216C598.232 369.363 600.643 368.936 603.331 368.936C605.251 368.936 607.021 369.107 608.643 369.448C610.264 369.789 611.821 370.344 613.315 371.112C614.083 371.496 614.616 372.008 614.915 372.648C615.256 373.288 615.363 373.949 615.235 374.632C615.149 375.315 614.893 375.933 614.467 376.488C614.04 377.043 613.485 377.405 612.803 377.576C612.163 377.747 611.416 377.661 610.563 377.32C609.197 376.68 607.939 376.232 606.787 375.976C605.635 375.677 604.525 375.528 603.458 375.528C601.539 375.528 600.152 375.848 599.299 376.488C598.445 377.085 598.019 377.853 598.019 378.792C598.019 379.517 598.253 380.136 598.723 380.648C599.235 381.117 600.003 381.437 601.027 381.608L607.747 382.824C610.52 383.293 612.632 384.232 614.083 385.64C615.533 387.005 616.259 388.883 616.259 391.272C616.259 394.515 614.979 397.075 612.419 398.952C609.901 400.787 606.531 401.704 602.307 401.704ZM108.816 488.704C105.445 488.704 102.501 488.043 99.984 486.72C97.5093 485.397 95.5893 483.499 94.224 481.024C92.8587 478.549 92.176 475.627 92.176 472.256C92.176 469.739 92.56 467.477 93.328 465.472C94.096 463.467 95.2053 461.76 96.656 460.352C98.1493 458.901 99.92 457.813 101.968 457.088C104.016 456.32 106.299 455.936 108.816 455.936C112.187 455.936 115.109 456.597 117.584 457.92C120.101 459.243 122.043 461.12 123.408 463.552C124.816 465.984 125.52 468.885 125.52 472.256C125.52 474.816 125.115 477.099 124.304 479.104C123.536 481.109 122.427 482.837 120.976 484.288C119.525 485.739 117.755 486.848 115.664 487.616C113.616 488.341 111.333 488.704 108.816 488.704ZM108.816 481.472C110.224 481.472 111.44 481.131 112.464 480.448C113.488 479.765 114.299 478.763 114.896 477.44C115.493 476.075 115.792 474.347 115.792 472.256C115.792 469.141 115.152 466.859 113.872 465.408C112.592 463.915 110.907 463.168 108.816 463.168C107.451 463.168 106.235 463.488 105.168 464.128C104.144 464.768 103.333 465.771 102.736 467.136C102.181 468.459 101.904 470.165 101.904 472.256C101.904 475.371 102.544 477.696 103.824 479.232C105.104 480.725 106.768 481.472 108.816 481.472ZM136.264 488.576C134.685 488.576 133.469 488.149 132.616 487.296C131.805 486.443 131.4 485.227 131.4 483.648V460.928C131.4 459.349 131.805 458.155 132.616 457.344C133.469 456.491 134.642 456.064 136.135 456.064C137.672 456.064 138.845 456.491 139.656 457.344C140.466 458.155 140.872 459.349 140.872 460.928V464.576L140.168 462.464C141.149 460.373 142.6 458.773 144.52 457.664C146.482 456.512 148.701 455.936 151.176 455.936C153.693 455.936 155.762 456.427 157.384 457.408C159.005 458.347 160.221 459.797 161.032 461.76C161.842 463.68 162.248 466.133 162.248 469.12V483.648C162.248 485.227 161.821 486.443 160.968 487.296C160.157 488.149 158.962 488.576 157.384 488.576C155.848 488.576 154.653 488.149 153.8 487.296C152.989 486.443 152.584 485.227 152.584 483.648V469.568C152.584 467.392 152.178 465.835 151.368 464.896C150.6 463.915 149.405 463.424 147.784 463.424C145.736 463.424 144.093 464.064 142.856 465.344C141.661 466.624 141.064 468.331 141.064 470.464V483.648C141.064 486.933 139.464 488.576 136.264 488.576Z" fill="#2F2A44"/>
<path d="M195.913 500.096C194.804 500.096 193.886 499.797 193.161 499.2C192.436 498.603 192.009 497.813 191.881 496.832C191.753 495.893 191.924 494.891 192.393 493.824L196.681 484.352V488.32L185.353 462.336C184.926 461.227 184.777 460.203 184.905 459.264C185.076 458.283 185.545 457.515 186.313 456.96C187.124 456.363 188.233 456.064 189.641 456.064C190.793 456.064 191.71 456.341 192.393 456.896C193.118 457.408 193.78 458.411 194.377 459.904L201.929 479.104H199.881L207.689 459.84C208.286 458.389 208.948 457.408 209.673 456.896C210.441 456.341 211.465 456.064 212.745 456.064C213.854 456.064 214.729 456.363 215.369 456.96C216.052 457.515 216.457 458.261 216.585 459.2C216.756 460.139 216.585 461.163 216.073 462.272L201.033 496.384C200.393 497.835 199.668 498.816 198.857 499.328C198.089 499.84 197.108 500.096 195.913 500.096ZM235.816 488.704C232.445 488.704 229.501 488.043 226.984 486.72C224.509 485.397 222.589 483.499 221.224 481.024C219.859 478.549 219.176 475.627 219.176 472.256C219.176 469.739 219.56 467.477 220.328 465.472C221.096 463.467 222.205 461.76 223.656 460.352C225.149 458.901 226.92 457.813 228.968 457.088C231.016 456.32 233.299 455.936 235.816 455.936C239.187 455.936 242.109 456.597 244.584 457.92C247.101 459.243 249.043 461.12 250.408 463.552C251.816 465.984 252.52 468.885 252.52 472.256C252.52 474.816 252.115 477.099 251.304 479.104C250.536 481.109 249.427 482.837 247.976 484.288C246.525 485.739 244.755 486.848 242.664 487.616C240.616 488.341 238.333 488.704 235.816 488.704ZM235.816 481.472C237.224 481.472 238.44 481.131 239.464 480.448C240.488 479.765 241.299 478.763 241.896 477.44C242.493 476.075 242.792 474.347 242.792 472.256C242.792 469.141 242.152 466.859 240.872 465.408C239.592 463.915 237.907 463.168 235.816 463.168C234.451 463.168 233.235 463.488 232.168 464.128C231.144 464.768 230.333 465.771 229.736 467.136C229.181 468.459 228.904 470.165 228.904 472.256C228.904 475.371 229.544 477.696 230.824 479.232C232.104 480.725 233.768 481.472 235.816 481.472ZM269.984 488.704C267.338 488.704 265.141 488.213 263.392 487.232C261.642 486.251 260.341 484.779 259.488 482.816C258.677 480.811 258.272 478.336 258.272 475.392V460.928C258.272 459.307 258.677 458.091 259.488 457.28C260.341 456.469 261.536 456.064 263.072 456.064C264.608 456.064 265.802 456.469 266.656 457.28C267.509 458.091 267.936 459.307 267.936 460.928V475.648C267.936 477.525 268.32 478.933 269.088 479.872C269.856 480.768 271.072 481.216 272.736 481.216C274.57 481.216 276.064 480.576 277.216 479.296C278.41 477.973 279.008 476.245 279.008 474.112V460.928C279.008 459.307 279.413 458.091 280.224 457.28C281.077 456.469 282.272 456.064 283.808 456.064C285.386 456.064 286.581 456.469 287.392 457.28C288.245 458.091 288.672 459.307 288.672 460.928V483.648C288.672 486.933 287.114 488.576 284 488.576C282.464 488.576 281.29 488.149 280.48 487.296C279.669 486.443 279.264 485.227 279.264 483.648V479.36L280.224 481.856C279.285 484.032 277.941 485.717 276.192 486.912C274.442 488.107 272.373 488.704 269.984 488.704ZM301.142 488.576C299.52 488.576 298.283 488.149 297.43 487.296C296.576 486.443 296.15 485.227 296.15 483.648V460.928C296.15 459.349 296.555 458.155 297.366 457.344C298.219 456.491 299.392 456.064 300.885 456.064C302.422 456.064 303.595 456.491 304.406 457.344C305.216 458.155 305.622 459.349 305.622 460.928V464.256H304.982C305.494 461.696 306.624 459.712 308.374 458.304C310.123 456.896 312.384 456.107 315.158 455.936C316.224 455.851 317.035 456.128 317.59 456.768C318.187 457.365 318.507 458.368 318.55 459.776C318.635 461.099 318.358 462.144 317.718 462.912C317.12 463.68 316.096 464.149 314.646 464.32L313.174 464.448C310.742 464.661 308.928 465.365 307.734 466.56C306.582 467.755 306.006 469.483 306.006 471.744V483.648C306.006 485.227 305.579 486.443 304.726 487.296C303.915 488.149 302.72 488.576 301.142 488.576ZM352.432 488.704C350.554 488.704 348.613 488.533 346.608 488.192C344.645 487.851 342.853 487.275 341.232 486.464C340.378 486.037 339.76 485.504 339.376 484.864C339.034 484.181 338.885 483.499 338.928 482.816C338.97 482.133 339.184 481.515 339.568 480.96C339.994 480.405 340.528 480.043 341.168 479.872C341.85 479.659 342.597 479.723 343.408 480.064C345.157 480.789 346.757 481.301 348.208 481.6C349.658 481.899 351.088 482.048 352.496 482.048C354.33 482.048 355.653 481.771 356.464 481.216C357.317 480.619 357.744 479.851 357.744 478.912C357.744 478.059 357.466 477.419 356.912 476.992C356.357 476.565 355.546 476.267 354.48 476.096L347.76 474.88C345.114 474.411 343.066 473.451 341.616 472C340.208 470.507 339.504 468.608 339.504 466.304C339.504 464.171 340.101 462.336 341.296 460.8C342.49 459.221 344.133 458.027 346.224 457.216C348.357 456.363 350.768 455.936 353.456 455.936C355.376 455.936 357.146 456.107 358.768 456.448C360.389 456.789 361.946 457.344 363.44 458.112C364.208 458.496 364.741 459.008 365.04 459.648C365.381 460.288 365.488 460.949 365.36 461.632C365.274 462.315 365.018 462.933 364.592 463.488C364.165 464.043 363.61 464.405 362.928 464.576C362.288 464.747 361.541 464.661 360.688 464.32C359.322 463.68 358.064 463.232 356.912 462.976C355.76 462.677 354.65 462.528 353.583 462.528C351.664 462.528 350.277 462.848 349.424 463.488C348.57 464.085 348.144 464.853 348.144 465.792C348.144 466.517 348.378 467.136 348.848 467.648C349.36 468.117 350.128 468.437 351.152 468.608L357.872 469.824C360.645 470.293 362.757 471.232 364.208 472.64C365.658 474.005 366.384 475.883 366.384 478.272C366.384 481.515 365.104 484.075 362.544 485.952C360.026 487.787 356.656 488.704 352.432 488.704ZM388.22 488.704C384.508 488.704 381.308 488.043 378.62 486.72C375.974 485.355 373.926 483.456 372.476 481.024C371.068 478.549 370.364 475.648 370.364 472.32C370.364 469.077 371.046 466.24 372.411 463.808C373.777 461.333 375.676 459.413 378.108 458.048C380.582 456.64 383.377 455.936 386.492 455.936C388.753 455.936 390.801 456.32 392.636 457.088C394.47 457.813 396.049 458.88 397.372 460.288C398.694 461.653 399.697 463.339 400.38 465.344C401.062 467.307 401.404 469.504 401.404 471.936C401.404 472.747 401.148 473.365 400.636 473.792C400.124 474.176 399.377 474.368 398.396 474.368H378.3V469.376H394.428L393.404 470.272C393.404 468.523 393.148 467.072 392.636 465.92C392.124 464.725 391.377 463.829 390.396 463.232C389.457 462.635 388.284 462.336 386.876 462.336C385.297 462.336 383.953 462.699 382.844 463.424C381.734 464.149 380.881 465.195 380.284 466.56C379.686 467.925 379.388 469.568 379.388 471.488V472C379.388 475.243 380.134 477.632 381.628 479.168C383.164 480.704 385.425 481.472 388.412 481.472C389.436 481.472 390.609 481.344 391.932 481.088C393.254 480.832 394.492 480.427 395.644 479.872C396.625 479.403 397.5 479.253 398.268 479.424C399.036 479.552 399.633 479.893 400.06 480.448C400.486 481.003 400.721 481.643 400.764 482.368C400.849 483.093 400.7 483.819 400.316 484.544C399.932 485.227 399.292 485.803 398.396 486.272C396.945 487.083 395.302 487.68 393.468 488.064C391.676 488.491 389.926 488.704 388.22 488.704ZM412.017 488.576C410.395 488.576 409.158 488.149 408.305 487.296C407.451 486.443 407.025 485.227 407.025 483.648V460.928C407.025 459.349 407.43 458.155 408.241 457.344C409.094 456.491 410.267 456.064 411.76 456.064C413.297 456.064 414.47 456.491 415.281 457.344C416.091 458.155 416.497 459.349 416.497 460.928V464.256H415.857C416.369 461.696 417.499 459.712 419.249 458.304C420.998 456.896 423.259 456.107 426.033 455.936C427.099 455.851 427.91 456.128 428.465 456.768C429.062 457.365 429.382 458.368 429.425 459.776C429.51 461.099 429.233 462.144 428.593 462.912C427.995 463.68 426.971 464.149 425.521 464.32L424.049 464.448C421.617 464.661 419.803 465.365 418.609 466.56C417.457 467.755 416.881 469.483 416.881 471.744V483.648C416.881 485.227 416.454 486.443 415.601 487.296C414.79 488.149 413.595 488.576 412.017 488.576ZM448.649 488.576C447.412 488.576 446.324 488.256 445.385 487.616C444.446 486.933 443.7 485.931 443.145 484.608L433.481 462.336C433.012 461.227 432.841 460.203 432.969 459.264C433.097 458.283 433.545 457.515 434.313 456.96C435.124 456.363 436.233 456.064 437.641 456.064C438.793 456.064 439.732 456.341 440.457 456.896C441.182 457.408 441.822 458.411 442.377 459.904L449.929 479.104H447.881L455.753 459.84C456.35 458.389 457.012 457.408 457.737 456.896C458.462 456.341 459.465 456.064 460.745 456.064C461.854 456.064 462.729 456.363 463.369 456.96C464.052 457.515 464.457 458.261 464.585 459.2C464.756 460.139 464.585 461.163 464.073 462.272L454.217 484.608C453.662 485.973 452.916 486.976 451.977 487.616C451.081 488.256 449.972 488.576 448.649 488.576ZM485.095 488.704C481.383 488.704 478.183 488.043 475.495 486.72C472.849 485.355 470.801 483.456 469.351 481.024C467.943 478.549 467.239 475.648 467.239 472.32C467.239 469.077 467.921 466.24 469.286 463.808C470.652 461.333 472.551 459.413 474.983 458.048C477.457 456.64 480.252 455.936 483.367 455.936C485.628 455.936 487.676 456.32 489.511 457.088C491.345 457.813 492.924 458.88 494.247 460.288C495.569 461.653 496.572 463.339 497.255 465.344C497.937 467.307 498.279 469.504 498.279 471.936C498.279 472.747 498.023 473.365 497.511 473.792C496.999 474.176 496.252 474.368 495.271 474.368H475.175V469.376H491.303L490.279 470.272C490.279 468.523 490.023 467.072 489.511 465.92C488.999 464.725 488.252 463.829 487.271 463.232C486.332 462.635 485.159 462.336 483.751 462.336C482.172 462.336 480.828 462.699 479.719 463.424C478.609 464.149 477.756 465.195 477.159 466.56C476.561 467.925 476.263 469.568 476.263 471.488V472C476.263 475.243 477.009 477.632 478.503 479.168C480.039 480.704 482.3 481.472 485.287 481.472C486.311 481.472 487.484 481.344 488.807 481.088C490.129 480.832 491.367 480.427 492.519 479.872C493.5 479.403 494.375 479.253 495.143 479.424C495.911 479.552 496.508 479.893 496.935 480.448C497.361 481.003 497.596 481.643 497.639 482.368C497.724 483.093 497.575 483.819 497.191 484.544C496.807 485.227 496.167 485.803 495.271 486.272C493.82 487.083 492.177 487.68 490.343 488.064C488.551 488.491 486.801 488.704 485.095 488.704ZM508.892 488.576C507.27 488.576 506.033 488.149 505.18 487.296C504.326 486.443 503.9 485.227 503.9 483.648V460.928C503.9 459.349 504.305 458.155 505.116 457.344C505.969 456.491 507.142 456.064 508.635 456.064C510.172 456.064 511.345 456.491 512.156 457.344C512.966 458.155 513.372 459.349 513.372 460.928V464.256H512.732C513.244 461.696 514.374 459.712 516.124 458.304C517.873 456.896 520.134 456.107 522.908 455.936C523.974 455.851 524.785 456.128 525.34 456.768C525.937 457.365 526.257 458.368 526.3 459.776C526.385 461.099 526.108 462.144 525.468 462.912C524.87 463.68 523.846 464.149 522.396 464.32L520.924 464.448C518.492 464.661 516.678 465.365 515.484 466.56C514.332 467.755 513.756 469.483 513.756 471.744V483.648C513.756 485.227 513.329 486.443 512.476 487.296C511.665 488.149 510.47 488.576 508.892 488.576ZM541.994 488.704C540.117 488.704 538.175 488.533 536.17 488.192C534.207 487.851 532.415 487.275 530.794 486.464C529.941 486.037 529.322 485.504 528.938 484.864C528.597 484.181 528.447 483.499 528.49 482.816C528.533 482.133 528.746 481.515 529.13 480.96C529.557 480.405 530.09 480.043 530.73 479.872C531.413 479.659 532.159 479.723 532.97 480.064C534.719 480.789 536.319 481.301 537.77 481.6C539.221 481.899 540.65 482.048 542.058 482.048C543.893 482.048 545.215 481.771 546.026 481.216C546.879 480.619 547.306 479.851 547.306 478.912C547.306 478.059 547.029 477.419 546.474 476.992C545.919 476.565 545.109 476.267 544.042 476.096L537.322 474.88C534.677 474.411 532.629 473.451 531.178 472C529.77 470.507 529.066 468.608 529.066 466.304C529.066 464.171 529.663 462.336 530.858 460.8C532.053 459.221 533.695 458.027 535.786 457.216C537.919 456.363 540.33 455.936 543.018 455.936C544.938 455.936 546.709 456.107 548.33 456.448C549.951 456.789 551.509 457.344 553.002 458.112C553.77 458.496 554.303 459.008 554.602 459.648C554.943 460.288 555.05 460.949 554.922 461.632C554.837 462.315 554.581 462.933 554.154 463.488C553.727 464.043 553.173 464.405 552.49 464.576C551.85 464.747 551.103 464.661 550.25 464.32C548.885 463.68 547.626 463.232 546.474 462.976C545.322 462.677 544.213 462.528 543.146 462.528C541.226 462.528 539.839 462.848 538.986 463.488C538.133 464.085 537.706 464.853 537.706 465.792C537.706 466.517 537.941 467.136 538.41 467.648C538.922 468.117 539.69 468.437 540.714 468.608L547.434 469.824C550.207 470.293 552.319 471.232 553.77 472.64C555.221 474.005 555.946 475.883 555.946 478.272C555.946 481.515 554.666 484.075 552.106 485.952C549.589 487.787 546.218 488.704 541.994 488.704Z" fill="#C4605C"/>
</g>
<defs>
<radialGradient id="paint0_radial_184_2" cx="0" cy="0" r="1" gradientUnits="userSpaceOnUse" gradientTransform="translate(180 63) scale(540 283.5)">
<stop stop-color="#E88783" stop-opacity="0.24"/>
<stop offset="1" stop-color="#E88783" stop-opacity="0"/>
</radialGradient>
<radialGradient id="paint1_radial_184_2" cx="0" cy="0" r="1" gradientUnits="userSpaceOnUse" gradientTransform="translate(1056 50.4) scale(480 252)">
<stop stop-color="#9BC4B6" stop-opacity="0.22"/>
<stop offset="1" stop-color="#9BC4B6" stop-opacity="0"/>
</radialGradient>
<radialGradient id="paint2_radial_184_2" cx="0" cy="0" r="1" gradientUnits="userSpaceOnUse" gradientTransform="translate(480 579.6) scale(540 283.5)">
<stop stop-color="#9EC9FF" stop-opacity="0.16"/>
<stop offset="1" stop-color="#9EC9FF" stop-opacity="0"/>
</radialGradient>
<clipPath id="clip0_184_2">
<rect width="1200" height="630" fill="white"/>
</clipPath>
</defs>
</svg>
