<svg width="1200" height="630" viewBox="0 0 1200 630" fill="none" xmlns="http://www.w3.org/2000/svg">
<g clip-path="url(#clip0_113_11)">
<path d="M1200 0H0V630H1200V0Z" fill="#FFF9F4"/>
<path d="M1200 0H0V630H1200V0Z" fill="url(#paint0_radial_113_11)"/>
<path d="M1200 0H0V630H1200V0Z" fill="url(#paint1_radial_113_11)"/>
<path d="M1200 0H0V630H1200V0Z" fill="url(#paint2_radial_113_11)"/>
<path d="M966.859 642.154C962.246 644.879 953.796 646.316 948.609 645.279C940.396 643.629 933.596 634.191 933.596 624.466C933.596 617.554 928.471 597.566 924.584 589.266C922.971 585.841 918.396 577.004 914.421 569.629C905.434 552.966 902.596 543.391 900.996 524.279C900.296 516.041 899.271 508.829 898.721 508.279C897.234 506.791 882.984 521.641 876.046 531.879C861.721 553.041 856.946 576.716 861.696 603.029C865.221 622.541 863.534 630.991 855.434 634.379C837.134 642.016 816.159 623.529 808.584 593.079C806.121 583.179 805.884 579.729 806.459 563.079C807.559 531.541 814.884 512.291 837.834 480.529C840.309 477.091 842.346 473.941 842.346 473.516C842.346 473.091 834.609 472.779 825.159 472.804C804.659 472.879 794.984 470.616 775.471 461.179C741.459 444.729 714.271 413.716 703.659 379.279C700.296 368.354 698.859 347.304 701.034 340.716C705.259 327.916 718.346 321.591 730.196 326.604C736.034 329.079 737.996 331.829 742.359 343.679C748.196 359.566 752.371 368.466 757.871 376.779C773.934 401.041 800.271 417.429 832.234 423.016C843.284 424.954 856.321 425.516 857.721 424.116C858.159 423.679 854.559 420.541 849.709 417.141C831.509 404.354 813.546 383.604 803.984 364.279C793.146 342.429 789.846 326.629 789.846 296.716C789.846 277.804 790.271 272.854 792.921 261.379C800.521 228.391 813.421 204.879 836.484 181.941C849.509 168.991 861.684 159.841 876.096 152.179C930.534 123.216 1002.81 122.566 1058.76 150.541C1090.73 166.529 1117.72 193.254 1133.48 224.529C1148.9 255.116 1154.45 293.591 1148.61 329.491C1147.06 339.004 1144.21 351.416 1142.26 357.079C1128.42 397.566 1097.53 427.854 1057.01 440.691C1051.01 442.591 1046.1 444.766 1046.1 445.516C1046.1 448.091 1055.43 456.004 1065.8 462.229C1085.65 474.141 1108.18 480.191 1133.6 480.404C1148.95 480.541 1162.96 478.641 1176.1 474.654C1180.57 473.304 1189.87 471.879 1196.77 471.504C1210.51 470.754 1214.37 471.841 1221.52 478.479C1226.3 482.916 1228.15 486.816 1229.05 494.341C1230.3 504.791 1224.38 513.604 1209.85 522.979C1201.77 528.191 1193.7 531.716 1181.72 535.266C1165.61 540.041 1161.6 540.491 1134.22 540.491C1107.85 540.491 1106.21 540.354 1094.22 536.979C1071.25 530.504 1051.05 519.391 1034.38 504.054C1021.41 492.116 1020.47 493.591 1029.41 511.966C1042.62 539.116 1062.27 560.266 1089.45 576.591C1115.63 592.316 1122.85 603.554 1113.53 614.154C1108.13 620.316 1100.4 622.916 1087.43 622.941C1071.43 622.966 1056.18 617.354 1037.76 604.654C1027.2 597.379 1008.77 578.729 1001.38 567.829C992.284 554.416 983.559 535.629 977.834 517.091C976.821 513.829 975.421 511.154 974.721 511.154C964.984 511.154 961.221 538.229 967.109 565.754C968.609 572.741 970.396 579.954 971.084 581.754C975.246 592.691 978.809 610.991 978.284 618.654C977.559 629.029 972.921 638.579 966.859 642.154ZM885.184 322.454C891.534 325.329 894.446 325.466 900.009 323.141C907.196 320.129 912.346 313.041 912.346 306.191C912.346 292.604 897.146 283.429 884.871 289.591C871.271 296.429 871.459 316.216 885.184 322.454ZM1030.98 335.804C1034.07 337.879 1037.01 338.654 1041.86 338.654C1047.46 338.654 1049.18 338.066 1052.77 334.904C1058.27 330.079 1060.32 324.991 1059.55 318.091C1058.28 306.916 1047.33 299.266 1037.01 302.354C1034.1 303.229 1029.93 305.854 1027.67 308.254C1024.05 312.104 1023.6 313.366 1023.61 319.679C1023.63 328.229 1025.37 332.016 1030.98 335.804ZM942.684 381.804C951.784 385.754 966.896 381.829 971.884 374.204C974.696 369.904 972.434 367.191 968.259 369.879C953.996 379.016 941.096 378.041 941.096 367.816C941.096 363.004 944.321 360.129 952.259 357.854C960.921 355.366 962.896 353.954 960.959 351.616C960.184 350.679 958.284 349.904 956.759 349.904C952.121 349.904 945.521 344.654 945.059 340.604C943.484 326.991 963.434 324.166 972.959 336.641C979.546 345.279 984.359 340.191 978.271 331.029C973.946 324.516 965.796 320.841 957.234 321.554C953.396 321.866 948.446 323.066 946.246 324.204C937.421 328.766 934.621 340.716 940.509 348.691L943.659 352.979L939.134 356.779C935.459 359.866 934.496 361.629 934.034 366.179C933.321 373.079 936.721 379.204 942.684 381.804Z" fill="#E88783"/>
<path d="M1030.98 335.804C1034.07 337.879 1037.01 338.654 1041.86 338.654C1047.46 338.654 1049.18 338.066 1052.77 334.904C1058.27 330.079 1060.32 324.991 1059.55 318.091C1058.28 306.916 1047.33 299.266 1037.01 302.354C1034.1 303.229 1029.93 305.854 1027.67 308.254C1024.05 312.104 1023.6 313.366 1023.61 319.679C1023.63 328.229 1025.37 332.016 1030.98 335.804Z" fill="#2F2A44"/>
<path d="M942.684 381.804C951.784 385.754 966.896 381.829 971.884 374.204C974.696 369.904 972.434 367.191 968.259 369.879C953.996 379.016 941.096 378.041 941.096 367.816C941.096 363.004 944.321 360.129 952.259 357.854C960.921 355.366 962.896 353.954 960.959 351.616C960.184 350.679 958.284 349.904 956.759 349.904C952.121 349.904 945.521 344.654 945.059 340.604C943.484 326.991 963.434 324.166 972.959 336.641C979.546 345.279 984.359 340.191 978.271 331.029C973.946 324.516 965.796 320.841 957.234 321.554C953.396 321.866 948.446 323.066 946.246 324.204C937.421 328.766 934.621 340.716 940.509 348.691L943.659 352.979L939.134 356.779C935.459 359.866 934.496 361.629 934.034 366.179C933.321 373.079 936.721 379.204 942.684 381.804Z" fill="#2F2A44"/>
<path d="M885.184 322.454C891.534 325.329 894.446 325.466 900.009 323.141C907.196 320.129 912.346 313.041 912.346 306.191C912.346 292.604 897.146 283.429 884.871 289.591C871.271 296.429 871.459 316.216 885.184 322.454Z" fill="#2F2A44"/>
<path d="M136.156 302.06V327H121.192C110.528 327 102.215 324.42 96.252 319.26C90.2893 313.985 87.308 305.443 87.308 293.632V255.448H75.612V231.024H87.308V207.632H116.72V231.024H135.984V255.448H116.72V293.976C116.72 296.843 117.408 298.907 118.784 300.168C120.16 301.429 122.453 302.06 125.664 302.06H136.156ZM146.691 278.84C146.691 268.979 148.526 260.321 152.195 252.868C155.979 245.415 161.082 239.681 167.503 235.668C173.924 231.655 181.091 229.648 189.003 229.648C195.768 229.648 201.674 231.024 206.719 233.776C211.879 236.528 215.835 240.14 218.587 244.612V231.024H247.999V327H218.587V313.412C215.72 317.884 211.707 321.496 206.547 324.248C201.502 327 195.596 328.376 188.831 328.376C181.034 328.376 173.924 326.369 167.503 322.356C161.082 318.228 155.979 312.437 152.195 304.984C148.526 297.416 146.691 288.701 146.691 278.84ZM218.587 279.012C218.587 271.673 216.523 265.883 212.395 261.64C208.382 257.397 203.451 255.276 197.603 255.276C191.755 255.276 186.767 257.397 182.639 261.64C178.626 265.768 176.619 271.501 176.619 278.84C176.619 286.179 178.626 292.027 182.639 296.384C186.767 300.627 191.755 302.748 197.603 302.748C203.451 302.748 208.382 300.627 212.395 296.384C216.523 292.141 218.587 286.351 218.587 279.012ZM327.929 327L298.689 286.752V327H269.277V199.72H298.689V270.068L327.757 231.024H364.049L324.145 279.184L364.393 327H327.929ZM419.29 328.376C409.887 328.376 401.402 326.369 393.834 322.356C386.38 318.343 380.475 312.609 376.118 305.156C371.875 297.703 369.754 288.988 369.754 279.012C369.754 269.151 371.932 260.493 376.289 253.04C380.647 245.472 386.61 239.681 394.178 235.668C401.746 231.655 410.231 229.648 419.634 229.648C429.036 229.648 437.522 231.655 445.09 235.668C452.658 239.681 458.62 245.472 462.978 253.04C467.335 260.493 469.514 269.151 469.514 279.012C469.514 288.873 467.278 297.588 462.806 305.156C458.448 312.609 452.428 318.343 444.746 322.356C437.178 326.369 428.692 328.376 419.29 328.376ZM419.29 302.92C424.908 302.92 429.667 300.856 433.566 296.728C437.579 292.6 439.586 286.695 439.586 279.012C439.586 271.329 437.636 265.424 433.738 261.296C429.954 257.168 425.252 255.104 419.634 255.104C413.9 255.104 409.142 257.168 405.358 261.296C401.574 265.309 399.682 271.215 399.682 279.012C399.682 286.695 401.516 292.6 405.186 296.728C408.97 300.856 413.671 302.92 419.29 302.92Z" fill="#2F2A44"/>
<path d="M92.72 391.46C91.3707 391.46 90.0213 391.353 88.672 391.138C87.3227 390.954 86.05 390.663 84.854 390.264C83.658 389.835 82.5847 389.313 81.634 388.7C81.082 388.332 80.6987 387.887 80.484 387.366C80.2693 386.845 80.1927 386.339 80.254 385.848C80.346 385.327 80.5453 384.882 80.852 384.514C81.1893 384.115 81.6033 383.87 82.094 383.778C82.5847 383.686 83.1213 383.824 83.704 384.192C85.0533 384.989 86.4793 385.572 87.982 385.94C89.4847 386.308 91.064 386.492 92.72 386.492C95.1427 386.492 96.906 386.093 98.01 385.296C99.114 384.468 99.666 383.41 99.666 382.122C99.666 381.049 99.2673 380.205 98.47 379.592C97.7033 378.979 96.3693 378.473 94.468 378.074L89.408 377.016C86.4947 376.403 84.3173 375.375 82.876 373.934C81.4653 372.462 80.76 370.53 80.76 368.138C80.76 366.635 81.0667 365.271 81.68 364.044C82.2933 362.817 83.152 361.759 84.256 360.87C85.3907 359.981 86.7247 359.306 88.258 358.846C89.822 358.355 91.5393 358.11 93.41 358.11C95.25 358.11 96.998 358.34 98.654 358.8C100.31 359.26 101.797 359.935 103.116 360.824C103.607 361.161 103.929 361.575 104.082 362.066C104.266 362.557 104.312 363.047 104.22 363.538C104.128 363.998 103.913 364.397 103.576 364.734C103.239 365.071 102.809 365.271 102.288 365.332C101.797 365.393 101.23 365.24 100.586 364.872C99.4513 364.228 98.3013 363.768 97.136 363.492C95.9707 363.216 94.7133 363.078 93.364 363.078C91.9533 363.078 90.742 363.277 89.73 363.676C88.718 364.075 87.936 364.642 87.384 365.378C86.8627 366.083 86.602 366.927 86.602 367.908C86.602 369.012 86.97 369.901 87.706 370.576C88.442 371.22 89.6993 371.726 91.478 372.094L96.492 373.152C99.528 373.796 101.782 374.808 103.254 376.188C104.757 377.568 105.508 379.408 105.508 381.708C105.508 383.18 105.201 384.514 104.588 385.71C104.005 386.906 103.147 387.933 102.012 388.792C100.908 389.651 99.574 390.31 98.01 390.77C96.446 391.23 94.6827 391.46 92.72 391.46ZM112.862 391.368C111.942 391.368 111.236 391.123 110.746 390.632C110.255 390.111 110.01 389.375 110.01 388.424V361.1C110.01 360.149 110.255 359.429 110.746 358.938C111.236 358.447 111.942 358.202 112.862 358.202C113.782 358.202 114.487 358.447 114.978 358.938C115.499 359.429 115.76 360.149 115.76 361.1V373.014H115.116C115.79 371.389 116.833 370.162 118.244 369.334C119.685 368.475 121.31 368.046 123.12 368.046C124.929 368.046 126.416 368.383 127.582 369.058C128.747 369.733 129.621 370.76 130.204 372.14C130.786 373.489 131.078 375.207 131.078 377.292V388.424C131.078 389.375 130.832 390.111 130.342 390.632C129.851 391.123 129.146 391.368 128.226 391.368C127.306 391.368 126.585 391.123 126.064 390.632C125.573 390.111 125.328 389.375 125.328 388.424V377.568C125.328 375.82 124.99 374.547 124.316 373.75C123.672 372.953 122.66 372.554 121.28 372.554C119.593 372.554 118.244 373.091 117.232 374.164C116.25 375.207 115.76 376.602 115.76 378.35V388.424C115.76 390.387 114.794 391.368 112.862 391.368ZM139.77 391.322C138.85 391.322 138.144 391.046 137.654 390.494C137.163 389.942 136.918 389.175 136.918 388.194V371.312C136.918 370.3 137.163 369.533 137.654 369.012C138.144 368.46 138.85 368.184 139.77 368.184C140.69 368.184 141.395 368.46 141.886 369.012C142.407 369.533 142.668 370.3 142.668 371.312V388.194C142.668 389.175 142.422 389.942 141.932 390.494C141.441 391.046 140.72 391.322 139.77 391.322ZM139.77 363.906C138.696 363.906 137.853 363.645 137.24 363.124C136.657 362.572 136.366 361.821 136.366 360.87C136.366 359.889 136.657 359.137 137.24 358.616C137.853 358.095 138.696 357.834 139.77 357.834C140.874 357.834 141.717 358.095 142.3 358.616C142.882 359.137 143.174 359.889 143.174 360.87C143.174 361.821 142.882 362.572 142.3 363.124C141.717 363.645 140.874 363.906 139.77 363.906ZM151.494 399.648C150.574 399.648 149.869 399.403 149.378 398.912C148.888 398.421 148.642 397.701 148.642 396.75V371.036C148.642 370.085 148.888 369.365 149.378 368.874C149.869 368.383 150.559 368.138 151.448 368.138C152.368 368.138 153.074 368.383 153.564 368.874C154.055 369.365 154.3 370.085 154.3 371.036V374.624L153.794 373.244C154.254 371.68 155.19 370.423 156.6 369.472C158.042 368.521 159.713 368.046 161.614 368.046C163.577 368.046 165.294 368.521 166.766 369.472C168.269 370.423 169.434 371.772 170.262 373.52C171.09 375.237 171.504 377.307 171.504 379.73C171.504 382.122 171.09 384.207 170.262 385.986C169.434 387.734 168.284 389.083 166.812 390.034C165.34 390.985 163.608 391.46 161.614 391.46C159.744 391.46 158.103 391 156.692 390.08C155.282 389.129 154.331 387.903 153.84 386.4H154.392V396.75C154.392 397.701 154.132 398.421 153.61 398.912C153.12 399.403 152.414 399.648 151.494 399.648ZM160.004 387.09C161.139 387.09 162.136 386.814 162.994 386.262C163.853 385.71 164.512 384.897 164.972 383.824C165.463 382.72 165.708 381.355 165.708 379.73C165.708 377.277 165.187 375.452 164.144 374.256C163.102 373.029 161.722 372.416 160.004 372.416C158.87 372.416 157.873 372.692 157.014 373.244C156.156 373.765 155.481 374.578 154.99 375.682C154.53 376.755 154.3 378.105 154.3 379.73C154.3 382.153 154.822 383.993 155.864 385.25C156.907 386.477 158.287 387.09 160.004 387.09ZM191.565 391.322C190.645 391.322 189.939 391.046 189.449 390.494C188.958 389.942 188.713 389.175 188.713 388.194V371.312C188.713 370.3 188.958 369.533 189.449 369.012C189.939 368.46 190.645 368.184 191.565 368.184C192.485 368.184 193.19 368.46 193.681 369.012C194.202 369.533 194.463 370.3 194.463 371.312V388.194C194.463 389.175 194.217 389.942 193.727 390.494C193.236 391.046 192.515 391.322 191.565 391.322ZM191.565 363.906C190.491 363.906 189.648 363.645 189.035 363.124C188.452 362.572 188.161 361.821 188.161 360.87C188.161 359.889 188.452 359.137 189.035 358.616C189.648 358.095 190.491 357.834 191.565 357.834C192.669 357.834 193.512 358.095 194.095 358.616C194.677 359.137 194.969 359.889 194.969 360.87C194.969 361.821 194.677 362.572 194.095 363.124C193.512 363.645 192.669 363.906 191.565 363.906ZM210.741 391.46C208.748 391.46 207.077 391.123 205.727 390.448C204.409 389.773 203.427 388.792 202.783 387.504C202.139 386.185 201.817 384.56 201.817 382.628V372.83H199.425C198.689 372.83 198.122 372.646 197.723 372.278C197.325 371.879 197.125 371.343 197.125 370.668C197.125 369.963 197.325 369.426 197.723 369.058C198.122 368.69 198.689 368.506 199.425 368.506H201.817V364.32C201.817 363.369 202.063 362.649 202.553 362.158C203.075 361.667 203.795 361.422 204.715 361.422C205.635 361.422 206.341 361.667 206.831 362.158C207.322 362.649 207.567 363.369 207.567 364.32V368.506H212.443C213.179 368.506 213.747 368.69 214.145 369.058C214.544 369.426 214.743 369.963 214.743 370.668C214.743 371.343 214.544 371.879 214.145 372.278C213.747 372.646 213.179 372.83 212.443 372.83H207.567V382.306C207.567 383.778 207.889 384.882 208.533 385.618C209.177 386.354 210.22 386.722 211.661 386.722C212.183 386.722 212.643 386.676 213.041 386.584C213.44 386.492 213.793 386.431 214.099 386.4C214.467 386.369 214.774 386.492 215.019 386.768C215.265 387.013 215.387 387.535 215.387 388.332C215.387 388.945 215.28 389.497 215.065 389.988C214.881 390.448 214.529 390.77 214.007 390.954C213.609 391.077 213.087 391.184 212.443 391.276C211.799 391.399 211.232 391.46 210.741 391.46ZM238.262 391.46C235.717 391.46 233.8 390.739 232.512 389.298C231.224 387.826 230.58 385.679 230.58 382.858V361.1C230.58 360.149 230.825 359.429 231.316 358.938C231.807 358.447 232.512 358.202 233.432 358.202C234.352 358.202 235.057 358.447 235.548 358.938C236.069 359.429 236.33 360.149 236.33 361.1V382.582C236.33 383.993 236.621 385.035 237.204 385.71C237.817 386.385 238.676 386.722 239.78 386.722C240.025 386.722 240.255 386.722 240.47 386.722C240.685 386.691 240.899 386.661 241.114 386.63C241.543 386.569 241.835 386.691 241.988 386.998C242.141 387.274 242.218 387.857 242.218 388.746C242.218 389.513 242.065 390.111 241.758 390.54C241.451 390.969 240.945 391.23 240.24 391.322C239.933 391.353 239.611 391.383 239.274 391.414C238.937 391.445 238.599 391.46 238.262 391.46ZM248.121 391.322C247.201 391.322 246.496 391.046 246.005 390.494C245.515 389.942 245.269 389.175 245.269 388.194V371.312C245.269 370.3 245.515 369.533 246.005 369.012C246.496 368.46 247.201 368.184 248.121 368.184C249.041 368.184 249.747 368.46 250.237 369.012C250.759 369.533 251.019 370.3 251.019 371.312V388.194C251.019 389.175 250.774 389.942 250.283 390.494C249.793 391.046 249.072 391.322 248.121 391.322ZM248.121 363.906C247.048 363.906 246.205 363.645 245.591 363.124C245.009 362.572 244.717 361.821 244.717 360.87C244.717 359.889 245.009 359.137 245.591 358.616C246.205 358.095 247.048 357.834 248.121 357.834C249.225 357.834 250.069 358.095 250.651 358.616C251.234 359.137 251.525 359.889 251.525 360.87C251.525 361.821 251.234 362.572 250.651 363.124C250.069 363.645 249.225 363.906 248.121 363.906ZM259.846 391.368C258.926 391.368 258.221 391.123 257.73 390.632C257.239 390.111 256.994 389.375 256.994 388.424V361.1C256.994 360.149 257.239 359.429 257.73 358.938C258.221 358.447 258.926 358.202 259.846 358.202C260.766 358.202 261.471 358.447 261.962 358.938C262.483 359.429 262.744 360.149 262.744 361.1V378.074H262.836L270.426 370.07C271.039 369.457 271.576 368.981 272.036 368.644C272.496 368.307 273.125 368.138 273.922 368.138C274.719 368.138 275.317 368.353 275.716 368.782C276.145 369.181 276.36 369.671 276.36 370.254C276.36 370.837 276.084 371.419 275.532 372.002L267.528 380.466V378.074L276.314 387.55C276.866 388.133 277.111 388.731 277.05 389.344C277.019 389.927 276.774 390.417 276.314 390.816C275.854 391.184 275.271 391.368 274.566 391.368C273.707 391.368 273.017 391.199 272.496 390.862C272.005 390.525 271.453 390.019 270.84 389.344L262.836 380.972H262.744V388.424C262.744 390.387 261.778 391.368 259.846 391.368ZM292.293 391.46C289.747 391.46 287.555 390.985 285.715 390.034C283.875 389.083 282.449 387.734 281.437 385.986C280.455 384.238 279.965 382.168 279.965 379.776C279.965 377.445 280.44 375.406 281.391 373.658C282.372 371.91 283.706 370.545 285.393 369.564C287.11 368.552 289.057 368.046 291.235 368.046C292.829 368.046 294.255 368.307 295.513 368.828C296.801 369.349 297.889 370.101 298.779 371.082C299.699 372.063 300.389 373.259 300.849 374.67C301.339 376.05 301.585 377.614 301.585 379.362C301.585 379.914 301.385 380.343 300.987 380.65C300.619 380.926 300.082 381.064 299.377 381.064H284.611V377.752H297.537L296.801 378.442C296.801 377.031 296.586 375.851 296.157 374.9C295.758 373.949 295.16 373.229 294.363 372.738C293.596 372.217 292.63 371.956 291.465 371.956C290.177 371.956 289.073 372.263 288.153 372.876C287.263 373.459 286.573 374.302 286.083 375.406C285.623 376.479 285.393 377.767 285.393 379.27V379.592C285.393 382.107 285.975 383.993 287.141 385.25C288.337 386.477 290.085 387.09 292.385 387.09C293.182 387.09 294.071 386.998 295.053 386.814C296.065 386.599 297.015 386.247 297.905 385.756C298.549 385.388 299.116 385.235 299.607 385.296C300.097 385.327 300.481 385.495 300.757 385.802C301.063 386.109 301.247 386.492 301.309 386.952C301.37 387.381 301.278 387.826 301.033 388.286C300.818 388.746 300.435 389.145 299.883 389.482C298.809 390.157 297.567 390.663 296.157 391C294.777 391.307 293.489 391.46 292.293 391.46Z" fill="#2F2A44" fill-opacity="0.7"/>
<path d="M322.215 391.368C321.264 391.368 320.513 391.107 319.961 390.586C319.439 390.034 319.179 389.252 319.179 388.24V361.698C319.179 360.686 319.439 359.919 319.961 359.398C320.513 358.846 321.295 358.57 322.307 358.57H338.361C339.158 358.57 339.756 358.769 340.155 359.168C340.553 359.567 340.753 360.134 340.753 360.87C340.753 361.637 340.553 362.235 340.155 362.664C339.756 363.063 339.158 363.262 338.361 363.262H325.067V372.416H337.395C338.161 372.416 338.744 372.615 339.143 373.014C339.572 373.413 339.787 373.98 339.787 374.716C339.787 375.483 339.572 376.081 339.143 376.51C338.744 376.909 338.161 377.108 337.395 377.108H325.067V388.24C325.067 390.325 324.116 391.368 322.215 391.368ZM356.132 391.368C355.182 391.368 354.446 391.107 353.924 390.586C353.434 390.034 353.188 389.283 353.188 388.332V363.492H344.218C343.421 363.492 342.792 363.277 342.332 362.848C341.903 362.388 341.688 361.775 341.688 361.008C341.688 360.211 341.903 359.613 342.332 359.214C342.792 358.785 343.421 358.57 344.218 358.57H368.046C368.844 358.57 369.457 358.785 369.886 359.214C370.346 359.613 370.576 360.211 370.576 361.008C370.576 361.775 370.346 362.388 369.886 362.848C369.457 363.277 368.844 363.492 368.046 363.492H359.076V388.332C359.076 389.283 358.831 390.034 358.34 390.586C357.85 391.107 357.114 391.368 356.132 391.368ZM376.882 391.368C375.932 391.368 375.196 391.107 374.674 390.586C374.184 390.034 373.938 389.283 373.938 388.332V361.56C373.938 360.579 374.199 359.843 374.72 359.352C375.242 358.831 375.978 358.57 376.928 358.57H388.014C391.572 358.57 394.316 359.459 396.248 361.238C398.18 363.017 399.146 365.501 399.146 368.69C399.146 371.879 398.18 374.379 396.248 376.188C394.316 377.967 391.572 378.856 388.014 378.856H379.826V388.332C379.826 389.283 379.581 390.034 379.09 390.586C378.6 391.107 377.864 391.368 376.882 391.368ZM379.826 374.21H387.094C389.18 374.21 390.759 373.75 391.832 372.83C392.906 371.879 393.442 370.499 393.442 368.69C393.442 366.881 392.906 365.516 391.832 364.596C390.759 363.676 389.18 363.216 387.094 363.216H379.826V374.21Z" fill="#E88783"/>
</g>
<defs>
<radialGradient id="paint0_radial_113_11" cx="0" cy="0" r="1" gradientUnits="userSpaceOnUse" gradientTransform="translate(180 63) scale(540 283.5)">
<stop stop-color="#E88783" stop-opacity="0.24"/>
<stop offset="1" stop-color="#E88783" stop-opacity="0"/>
</radialGradient>
<radialGradient id="paint1_radial_113_11" cx="0" cy="0" r="1" gradientUnits="userSpaceOnUse" gradientTransform="translate(1056 50.4) scale(480 252)">
<stop stop-color="#9BC4B6" stop-opacity="0.22"/>
<stop offset="1" stop-color="#9BC4B6" stop-opacity="0"/>
</radialGradient>
<radialGradient id="paint2_radial_113_11" cx="0" cy="0" r="1" gradientUnits="userSpaceOnUse" gradientTransform="translate(480 579.6) scale(540 283.5)">
<stop stop-color="#9EC9FF" stop-opacity="0.16"/>
<stop offset="1" stop-color="#9EC9FF" stop-opacity="0"/>
</radialGradient>
<clipPath id="clip0_113_11">
<rect width="1200" height="630" fill="white"/>
</clipPath>
</defs>
</svg>
