<svg width="424" height="413" viewBox="0 0 424 413">
<path d="M213.487 409.723C209.797 411.903 203.037 413.053 198.887 412.223C192.317 410.903 186.877 403.353 186.877 395.573C186.877 390.043 182.777 374.053 179.667 367.413C178.377 364.673 174.717 357.603 171.537 351.703C164.347 338.373 162.077 330.713 160.797 315.423C160.237 308.833 159.417 303.063 158.977 302.623C157.787 301.433 146.387 313.313 140.837 321.503C129.377 338.433 125.557 357.373 129.357 378.423C132.177 394.033 130.827 400.793 124.347 403.503C109.707 409.613 92.927 394.823 86.867 370.463C84.897 362.543 84.7071 359.783 85.1671 346.463C86.0471 321.233 91.9071 305.833 110.267 280.423C112.247 277.673 113.877 275.153 113.877 274.813C113.877 274.473 107.687 274.223 100.127 274.243C83.7271 274.303 75.987 272.493 60.377 264.943C33.167 251.783 11.4171 226.973 2.92705 199.423C0.237053 190.683 -0.912953 173.843 0.827047 168.573C4.20705 158.333 14.677 153.273 24.157 157.283C28.827 159.263 30.397 161.463 33.887 170.943C38.557 183.653 41.897 190.773 46.297 197.423C59.147 216.833 80.2171 229.943 105.787 234.413C114.627 235.963 125.057 236.413 126.177 235.293C126.527 234.943 123.647 232.433 119.767 229.713C105.207 219.483 90.837 202.883 83.187 187.423C74.517 169.943 71.8771 157.303 71.8771 133.373C71.8771 118.243 72.217 114.283 74.337 105.103C80.417 78.7132 90.737 59.9031 109.187 41.5531C119.607 31.1931 129.347 23.8731 140.877 17.7431C184.427 -5.42685 242.247 -5.94685 287.007 16.4331C312.587 29.2231 334.177 50.6032 346.787 75.6231C359.117 100.093 363.557 130.873 358.887 159.593C357.647 167.203 355.367 177.133 353.807 181.663C342.737 214.053 318.027 238.283 285.607 248.553C280.807 250.073 276.877 251.813 276.877 252.413C276.877 254.473 284.347 260.803 292.637 265.783C308.517 275.313 326.547 280.153 346.877 280.323C359.157 280.433 370.367 278.913 380.877 275.723C384.457 274.643 391.897 273.503 397.417 273.203C408.407 272.603 411.497 273.473 417.217 278.783C421.037 282.333 422.517 285.453 423.237 291.473C424.237 299.833 419.507 306.883 407.877 314.383C401.417 318.553 394.957 321.373 385.377 324.213C372.487 328.033 369.277 328.393 347.377 328.393C326.277 328.393 324.967 328.283 315.377 325.583C296.997 320.403 280.837 311.513 267.507 299.243C257.127 289.693 256.377 290.873 263.527 305.573C274.097 327.293 289.817 344.213 311.557 357.273C332.507 369.853 338.277 378.843 330.827 387.323C326.507 392.253 320.317 394.333 309.947 394.353C297.147 394.373 284.947 389.883 270.207 379.723C261.757 373.903 247.017 358.983 241.107 350.263C233.827 339.533 226.847 324.503 222.267 309.673C221.457 307.063 220.337 304.923 219.777 304.923C211.987 304.923 208.977 326.583 213.687 348.603C214.887 354.193 216.317 359.963 216.867 361.403C220.197 370.153 223.047 384.793 222.627 390.923C222.047 399.223 218.337 406.863 213.487 409.723ZM148.147 153.963C153.227 156.263 155.557 156.373 160.007 154.513C165.757 152.103 169.877 146.433 169.877 140.953C169.877 130.083 157.717 122.743 147.897 127.673C137.017 133.143 137.167 148.973 148.147 153.963ZM264.787 164.643C267.257 166.303 269.607 166.923 273.487 166.923C277.967 166.923 279.347 166.453 282.217 163.923C286.617 160.063 288.257 155.993 287.637 150.473C286.627 141.533 277.867 135.413 269.607 137.883C267.277 138.583 263.947 140.683 262.137 142.603C259.237 145.683 258.877 146.693 258.887 151.743C258.907 158.583 260.297 161.613 264.787 164.643ZM194.147 201.443C201.427 204.603 213.517 201.463 217.507 195.363C219.757 191.923 217.947 189.753 214.607 191.903C203.197 199.213 192.877 198.433 192.877 190.253C192.877 186.403 195.457 184.103 201.807 182.283C208.737 180.293 210.317 179.163 208.767 177.293C208.147 176.543 206.627 175.923 205.407 175.923C201.697 175.923 196.417 171.723 196.047 168.483C194.787 157.593 210.747 155.333 218.367 165.313C223.637 172.223 227.487 168.153 222.617 160.823C219.157 155.613 212.637 152.673 205.787 153.243C202.717 153.493 198.757 154.453 196.997 155.363C189.937 159.013 187.697 168.573 192.407 174.953L194.927 178.383L191.307 181.423C188.367 183.893 187.597 185.303 187.227 188.943C186.657 194.463 189.377 199.363 194.147 201.443Z" fill="currentColor"/>
</svg>
