<svg width="1200" height="200" viewBox="0 0 1200 200" fill="none" xmlns="http://www.w3.org/2000/svg">
<g clip-path="url(#clip0_317_30)">
<path d="M1200 0H0V200H1200V0Z" fill="#FFF9F4"/>
<path d="M1200 0H0V200H1200V0Z" fill="url(#paint0_radial_317_30)"/>
<path d="M1200 0H0V200H1200V0Z" fill="url(#paint1_radial_317_30)"/>
<path d="M1200 0H0V200H1200V0Z" fill="url(#paint2_radial_317_30)"/>
<path d="M97.744 122.44V141H86.608C78.672 141 72.4853 139.08 68.048 135.24C63.6107 131.315 61.392 124.957 61.392 116.168V87.752H52.688V69.576H61.392V52.168H83.28V69.576H97.616V87.752H83.28V116.424C83.28 118.557 83.792 120.093 84.816 121.032C85.84 121.971 87.5467 122.44 89.936 122.44H97.744ZM105.584 105.16C105.584 97.8213 106.949 91.3787 109.68 85.832C112.496 80.2853 116.293 76.0187 121.072 73.032C125.851 70.0453 131.184 68.552 137.072 68.552C142.107 68.552 146.501 69.576 150.256 71.624C154.096 73.672 157.04 76.36 159.088 79.688V69.576H180.976V141H159.088V130.888C156.955 134.216 153.968 136.904 150.128 138.952C146.373 141 141.979 142.024 136.944 142.024C131.141 142.024 125.851 140.531 121.072 137.544C116.293 134.472 112.496 130.163 109.68 124.616C106.949 118.984 105.584 112.499 105.584 105.16ZM159.088 105.288C159.088 99.8267 157.552 95.5173 154.48 92.36C151.493 89.2027 147.824 87.624 143.472 87.624C139.12 87.624 135.408 89.2027 132.336 92.36C129.349 95.432 127.856 99.6987 127.856 105.16C127.856 110.621 129.349 114.973 132.336 118.216C135.408 121.373 139.12 122.952 143.472 122.952C147.824 122.952 151.493 121.373 154.48 118.216C157.552 115.059 159.088 110.749 159.088 105.288ZM240.459 141L218.699 111.048V141H196.811V46.28H218.699V98.632L240.331 69.576H267.339L237.643 105.416L267.595 141H240.459ZM308.448 142.024C301.451 142.024 295.136 140.531 289.504 137.544C283.957 134.557 279.563 130.291 276.32 124.744C273.163 119.197 271.584 112.712 271.584 105.288C271.584 97.9493 273.205 91.5067 276.448 85.96C279.691 80.328 284.128 76.0187 289.76 73.032C295.392 70.0453 301.707 68.552 308.704 68.552C315.701 68.552 322.016 70.0453 327.648 73.032C333.28 76.0187 337.717 80.328 340.96 85.96C344.203 91.5067 345.824 97.9493 345.824 105.288C345.824 112.627 344.16 119.112 340.832 124.744C337.589 130.291 333.109 134.557 327.392 137.544C321.76 140.531 315.445 142.024 308.448 142.024ZM308.448 123.08C312.629 123.08 316.171 121.544 319.072 118.472C322.059 115.4 323.552 111.005 323.552 105.288C323.552 99.5707 322.101 95.176 319.2 92.104C316.384 89.032 312.885 87.496 308.704 87.496C304.437 87.496 300.896 89.032 298.08 92.104C295.264 95.0907 293.856 99.4853 293.856 105.288C293.856 111.005 295.221 115.4 297.952 118.472C300.768 121.544 304.267 123.08 308.448 123.08Z" fill="#2F2A44"/>
<path d="M367.676 142.024C363.836 142.024 360.679 140.915 358.204 138.696C355.815 136.392 354.62 133.576 354.62 130.248C354.62 126.835 355.815 123.976 358.204 121.672C360.679 119.368 363.836 118.216 367.676 118.216C371.431 118.216 374.503 119.368 376.892 121.672C379.367 123.976 380.604 126.835 380.604 130.248C380.604 133.576 379.367 136.392 376.892 138.696C374.503 140.915 371.431 142.024 367.676 142.024ZM422.617 142.024C416.388 142.024 410.841 140.957 405.977 138.824C401.113 136.691 397.273 133.789 394.457 130.12C391.641 126.365 390.062 122.184 389.721 117.576H411.353C411.609 120.051 412.761 122.056 414.809 123.592C416.857 125.128 419.374 125.896 422.361 125.896C425.092 125.896 427.182 125.384 428.633 124.36C430.169 123.251 430.937 121.843 430.937 120.136C430.937 118.088 429.87 116.595 427.737 115.656C425.604 114.632 422.148 113.523 417.369 112.328C412.249 111.133 407.982 109.896 404.569 108.616C401.156 107.251 398.212 105.16 395.737 102.344C393.262 99.4427 392.025 95.56 392.025 90.696C392.025 86.6 393.134 82.888 395.353 79.56C397.657 76.1467 400.985 73.4587 405.337 71.496C409.774 69.5333 415.022 68.552 421.081 68.552C430.041 68.552 437.081 70.7707 442.201 75.208C447.406 79.6453 450.393 85.5333 451.161 92.872H430.937C430.596 90.3973 429.486 88.4347 427.609 86.984C425.817 85.5333 423.428 84.808 420.441 84.808C417.881 84.808 415.918 85.32 414.553 86.344C413.188 87.2827 412.505 88.6053 412.505 90.312C412.505 92.36 413.572 93.896 415.705 94.92C417.924 95.944 421.337 96.968 425.945 97.992C431.236 99.3573 435.545 100.723 438.873 102.088C442.201 103.368 445.102 105.501 447.577 108.488C450.137 111.389 451.46 115.315 451.545 120.264C451.545 124.445 450.35 128.2 447.961 131.528C445.657 134.771 442.286 137.331 437.849 139.208C433.497 141.085 428.42 142.024 422.617 142.024ZM508.84 68.808C517.032 68.808 523.603 71.5387 528.552 77C533.501 82.376 535.976 89.8 535.976 99.272V141H514.216V102.216C514.216 97.4373 512.979 93.7253 510.504 91.08C508.029 88.4347 504.701 87.112 500.52 87.112C496.339 87.112 493.011 88.4347 490.536 91.08C488.061 93.7253 486.824 97.4373 486.824 102.216V141H464.936V46.28H486.824V79.176C489.043 76.0187 492.072 73.5013 495.912 71.624C499.752 69.7467 504.061 68.808 508.84 68.808Z" fill="#C4605C"/>
</g>
<defs>
<radialGradient id="paint0_radial_317_30" cx="0" cy="0" r="1" gradientUnits="userSpaceOnUse" gradientTransform="translate(180 20) scale(540 90)">
<stop stop-color="#E88783" stop-opacity="0.24"/>
<stop offset="1" stop-color="#E88783" stop-opacity="0"/>
</radialGradient>
<radialGradient id="paint1_radial_317_30" cx="0" cy="0" r="1" gradientUnits="userSpaceOnUse" gradientTransform="translate(1056 16) scale(480 80)">
<stop stop-color="#9BC4B6" stop-opacity="0.22"/>
<stop offset="1" stop-color="#9BC4B6" stop-opacity="0"/>
</radialGradient>
<radialGradient id="paint2_radial_317_30" cx="0" cy="0" r="1" gradientUnits="userSpaceOnUse" gradientTransform="translate(480 184) scale(540 90)">
<stop stop-color="#9EC9FF" stop-opacity="0.16"/>
<stop offset="1" stop-color="#9EC9FF" stop-opacity="0"/>
</radialGradient>
<clipPath id="clip0_317_30">
<rect width="1200" height="200" fill="white"/>
</clipPath>
</defs>
</svg>
